<mxfile host="app.diagrams.net" agent="Mozilla/5.0 (Windows NT 10.0; Win64; x64) AppleWebKit/537.36 (KHTML, like Gecko) Chrome/128.0.0.0 Safari/537.36" version="24.7.13">
  <diagram id="WI9T0HZ2pTsCkuznbFz-" name="Page-1">
    <mxGraphModel dx="2889" dy="871" grid="1" gridSize="10" guides="1" tooltips="1" connect="1" arrows="1" fold="1" page="1" pageScale="1" pageWidth="1169" pageHeight="827" math="0" shadow="0">
      <root>
        <mxCell id="0" />
        <mxCell id="1" parent="0" />
        <mxCell id="sBFlt-I1jG-c467NaXLH-69" style="edgeStyle=orthogonalEdgeStyle;rounded=0;orthogonalLoop=1;jettySize=auto;html=1;" edge="1" parent="1">
          <mxGeometry relative="1" as="geometry">
            <mxPoint x="1168" y="222.0666666666666" as="sourcePoint" />
            <mxPoint x="1207" y="200.0666666666666" as="targetPoint" />
          </mxGeometry>
        </mxCell>
        <mxCell id="sBFlt-I1jG-c467NaXLH-141" style="edgeStyle=orthogonalEdgeStyle;rounded=0;orthogonalLoop=1;jettySize=auto;html=1;" edge="1" parent="1" source="AcxdMaKK0mU5kZiv2lnr-4">
          <mxGeometry relative="1" as="geometry">
            <mxPoint x="1580" y="210" as="targetPoint" />
          </mxGeometry>
        </mxCell>
        <mxCell id="AcxdMaKK0mU5kZiv2lnr-4" value="" style="rounded=0;whiteSpace=wrap;html=1;verticalAlign=top;align=left;strokeColor=#FFB366;fillColor=#FFFFFF;shadow=1;" parent="1" vertex="1">
          <mxGeometry x="410" y="64.5" width="1090" height="384" as="geometry" />
        </mxCell>
        <mxCell id="sBFlt-I1jG-c467NaXLH-19" style="edgeStyle=orthogonalEdgeStyle;rounded=0;orthogonalLoop=1;jettySize=auto;html=1;exitX=0.5;exitY=1;exitDx=0;exitDy=0;shadow=1;" edge="1" parent="1">
          <mxGeometry relative="1" as="geometry">
            <mxPoint x="812" y="414.75" as="sourcePoint" />
            <mxPoint x="812" y="414.75" as="targetPoint" />
          </mxGeometry>
        </mxCell>
        <mxCell id="sBFlt-I1jG-c467NaXLH-79" style="edgeStyle=orthogonalEdgeStyle;rounded=0;orthogonalLoop=1;jettySize=auto;html=1;shadow=1;" edge="1" parent="1" source="sBFlt-I1jG-c467NaXLH-73" target="sBFlt-I1jG-c467NaXLH-10">
          <mxGeometry relative="1" as="geometry" />
        </mxCell>
        <mxCell id="sBFlt-I1jG-c467NaXLH-73" value="Operario" style="swimlane;whiteSpace=wrap;html=1;fillColor=#f5f5f5;gradientColor=#b3b3b3;strokeColor=#666666;" vertex="1" parent="1">
          <mxGeometry x="-30" y="159" width="191" height="195" as="geometry" />
        </mxCell>
        <mxCell id="sBFlt-I1jG-c467NaXLH-74" value="" style="shape=image;verticalLabelPosition=bottom;labelBackgroundColor=default;verticalAlign=top;aspect=fixed;imageAspect=0;image=data:image/png,iVBORw0KGgoAAAANSUhEUgAAAOEAAADhCAMAAAAJbSJIAAABBVBMVEX///8kIiLY7P7s7/GKyf4jISGnm6cAAADv8vQfHBsNAADb8P8aFxfr6ur09/lnZ2cPCgnS1NbIycurra9ITFCquccUEA/b3d83Njc8PDxka3Lg9P9CREjR7f+CgYEXEQ4cDwBvncV4q9fF1+haVFmjl6IsKSr+ZG//4XeTn6ps9cKCjJYZBQAhFwx9teN9xv9Bc55gZmxPR04VISAZGR8FHRxmNTgCCRslFRwpMS7FUlo4KCn/WGWGMDY4Myr/33CHcD7Aql5wZD1B87MSeVSZmZl2f4i1xdRv98Rvbm63trZZWFiPjo6BgIBHTVRljrE5XX3KSVNsLDA/JSdDOiqgrbqLl6F379gsAAAHyUlEQVR4nO2d/YOaNhiARZeFIHCAHuLpzna2bO2t227ttnbf68ZdFa/rPnr//58yJcH7MCgCIYa+z2/XouYh38kLabUAAAAAAAAAAAAAAGgwbhRrWCW0OHLz61lRgB0TqYXp4DCy8gkuiEM0FSGOuchTPgMHyU5qYZAT7CyrPaxm/qUQ3NsuGOFbGSi7au3BrUTjaHsOsmsRcTA2HFUwMHZImvRtueilgsTpR15HV4eOF43T9hFhL0vQDuk1yIk929Y7KqHbttdnbSQJ7QzDhcMEF7paehRdXzBFJ6PT6NAyuizHtuzEFsSOUoUO1/DUT26AETFB2XVrL5giK4b+Kb8WJv6kbzO/gasOg9RxnDQlKOQ3pIk+9pJr7XmfyO4D9oD050nG6HODWfDamaSQkpgKLjCR3YvvBcGLJOFWP8lEn9fWxGbSDPX05FZg1QanCM8TRZpRZsyphsOVPPLd1XX0D7Ugw6Sczn1E/9jsK5KGBoWDpaE+wLLTWwC8SnrHYx6b/YVFqLu1KqSs1UFEDWiNom2kGySGZHMybJnUsHNjiMK+Eryl/dwdQzOXIRmP2grQ/YR2gs01bIMhGB4+pQ27wtie8NwfKW14fSKGi+Ntit3pWd6PlDUcGqYYJvgiW7F7OZnwPnLG+Ug5w9GZU3Y0lQkyLjMVRwF3ZIycaeWGY4Fj8AkvRyjTCX9y4zzZ/EhJQ5GzDDCs1fDZg0ohOQ3Rt2ueizV88NfDSnlHchmiH39I+fuf50INv/jyoyr56utnOQ0/S/npZzAEQzAEQzAEQzBsqKGmfbfmX9RMw+dr2AZ24wzv03zDSWMM2xmGBmctSk3D0Ql3fcgMONeqadhun2NjAxzw1q5UNexOjze4bFe/XirPsN0dbcC/XFnDy6bn4flmNWxUPVy2pbzugoTNycOMaHPjfVP6w+aPaT6YcSl6saaZcwukvV7zXyPnh+iXz1N+/e0FGILhB2744OGnlfLu4Ay1Z9WSc4e0TkMhgCEYVmN4MREmiHB23Fdq+Pua14IM21NtIig628QnWX4349Lv1ySCIgy704u3YsKzz59kC9Y4t1iyI0iyMFujL2s1lEKmYeVzfFlktOFoUnlsoiy6l7im+FJpdKdn5xtcXPJSVIVhvQHejM0l74xF7woMR5zl51JMcxSOLuca3r9VYng+4aw/l8G83pmNo/fjcIPgTIjh6MLgt9zF2TZeY7n1hPcQKzHOheQhP6i8FOb5jnLaJfy7ijkbF6UNp2HVWbj86v4Ow1rHNKO3ZuWGxq6KWO+4dEo4nW8pjP52vxvDmzoo0JD/gE4pts0q7hiil2tErepTOBvOpdjd5bMZ8KunKX/8+VKkYf2sDd9QwTfNNXwKhmAIhgn8IX0Jdn9fvYaj43hcLSfTXf1FrYbdY2xWvFQ6IZzlFr5hHb1FV8BjpJOLXCPvmnp8qXOLV2s0QZEKK0TMD09yGqJ7Q28xpZQ73S75Vqfsp7jvGt5H0NziOphUy3jXIkbdq/rd9rRacuyFmDWuYkhhdMatGg5v6qymYXt0HWj3FxO1kLvjqKjhcmTHKd2iVoQPHDAEw8MHDLcaVr1xKITihmhY8bahKBKpIoYaqnjbUBR0gFfEUC3A8I6hq6Shm9+wo/sCYy4FQfzkPcJ5DefYr3jLUDQ+e1NyTsOO7V4dqcWVS9+0ntdwddaAYrCXsuc2VBYwBMPDBwwbbZhsDKDAkp3EknjUEG0a6vSN+9pAxUN0buHRnAr1DcMWPfrC8BQ37CVvfSH9TcHWLInP8xeqHhTEoBrmjGPI5APZSSyFPqDbuQ7vZLIBfU+DoexpTyvYcUjIGXAMWUVEhsJtzXLqjjKrYas1pxN7s99RVVFnxz1peM41bGn0v/1YUUXdiumxY0TjC6ZnWmlm4Cl2ct4K3fYCFq6dfTzgjL1BjOCZ11nOKdXBtjveLD1g1OF1FRR7mMasm8Z4FvXUIZqNjXXaOWc9rbFu1tiI6cs+TG0PfPMm4c7WU4GtsPonD+rFDHcce2zFyp24dhuE493nOkc4I5Tl8EHm9qNy19k4uzl6ViFWB/zOch7M3bKiMcGOvz8k/bFisNtKCvyyg8k478HjTNLrLU6vTvckpkPb4FEx6E4niff92avTRc/bS68wbAb26ONCPP4muUHcmc+hAIZgCIbyAUMwBEP5gCEYgqF8wBAMD8uQE5bUilLDx4VghhH3u2t1c6NZPAw4rwCim3do43GenLA1kJD31cN4Frn1eFqLADurB4N5DxayNBZEy/748vdMBwen4tcq9BmWGHtKfHzFCUGoEs/x5a4zIt/J3FiqgugAFsRRvlXf8oJF61ph6lCcp4KIOHWvit/+SZS1iV0WK62Cph9HnjuoF9eLYp9tjCGzI8Twymd38MjVZewP27p7xEqRfyVC0KKFZFkLpG3y6zZrCRAR0S/2jOS7HakRRXYvjWsSYMgCxo7khkzpR9lxa2Whr711JMcu6r2kNSDD6gVtGn+KZMeEpfGj1Q/CbUK/WXYMsZe8xQURAYb03mlgCIZgKN0wtCSM124j3tBz5eKFYg2Xw/oCwS5VYrKBqTDD+me+99GEGR5UIJjIPDwMRBiyhxUOhIzHDcoxr/y9dMUhYlZq5iE+FEJBS1EAAAAAAAAAAAAAABwu/wN++w4QONnxZgAAAABJRU5ErkJggg==;" vertex="1" parent="sBFlt-I1jG-c467NaXLH-73">
          <mxGeometry x="57.63" y="104.63" width="75.75" height="75.75" as="geometry" />
        </mxCell>
        <mxCell id="sBFlt-I1jG-c467NaXLH-83" value="" style="shape=image;verticalLabelPosition=bottom;labelBackgroundColor=default;verticalAlign=top;aspect=fixed;imageAspect=0;image=data:image/png,iVBORw0KGgoAAAANSUhEUgAAAOEAAADhCAMAAAAJbSJIAAABKVBMVEX///86VWr81GJkeYrh5ukvSFn2w1jlY1PV1tstTGOvt75cc4W8xMv/116qtL3/1mCeoI9fdor63qpac4vIz9T2wVCUmY/Ou34zUGb3+Pn80ljg5+7m6+4nSGA7UmI/WW7mXEofPVBLYnJzhJL++OTl5d/0y3k+VGQyS1xJYXRTZXPb4OSYpK4oQ1UaRFeMm6f8123//fb3yWfu2a5/kJ793oz82XX+6rn+7sbw4sVjdIAZOk3lVEDmbF3mk4vZz9K6aWSmaWmVZWfWaV5nX2lWWGVugpF+jJGinYK2rILDtYThyH3qzXeMlZC+sYPTunKeo5m6vbHU08b94pz+8tX84qL53aroxb/nhHrmqaTmtbHlf3Tin5nbubrawsTqp6HGe3aBYmjPamH/ciftAAANMUlEQVR4nO2de3faRhrGkblJgCFEOAYHjIGmGAsMdojTxHHdNCnYjtPutunm7t32+3+IHd3npps1oxnn9DknfwSwpB/PvJcZDZDLcVGnoLZatVupwOeKGKpjVJaragrlp4ZohjCp83y12synUrU674rmCFCnAq4uHZ3L2BLNQlOnzgbPZlRF45Cq5dnxmeqIBsLUXbLly1cropFQtRjzAS1FMyGasgfM52XKp3MegFV5CDusQ1A6Qj6AEhFyGaJAK1nKRZ0TYH4umswRhzJhS5a+rZuyyQ7Rsi7FPIpTlrFUrS7F+8htjNpqVpeCfexw5bMZxbanFb4WWqpOBQJ2VvwBxSLWMrBQLOIoE0CAWBMEWMjGQlOCWlRu/RqhqqAOLjsL81UhK6jdDAmbQpY0Msqktqoiehte80I6YV0A4ShDQDAfzh4wXU/abDZ1XW/Gn3sJGKbdFHi6vr643N6+unzQ1GNCCpgQG7cNw6a+vjrZaGw2GuDfxpuLfCxIAYF4O8KmPrq8BnAbrhqbG7/dW0VDCiBUkxM29dXFm41NH8+FPNmOHK4CCJNO70HwPdheNHA8B7JxcvVWD4OUidBMkoSa+bdXC8I9zMlf18FOSkMI0siDq21Cv12H47mQ15frAEZJCJv6vTcLM0mSisRz8871xUqXlRDwXcdFCYNcbFMYZSDU19cxRmIsyI1fiW5HAkL93oINn6nN67UuG6F+tcmMD6ixuKfLRahfMgUE2rzQZSLUL9iNUFcNxEXBhM0H7AGB3jblIWSYZHw1TnRZCPVtLhZubF7pchA211z4TK2bUhDyshCM021dCsLRghPgxsZiLQNh84J1KfS1ealLQKi/4TVIwTC9bkpAmOc3SIEkGKXNt/wGKRimbtUXSfiAK+G9fwj5yfjmCQvfPKF73+LbJXTvrn3DhM5GhawIBew4UbMlFLFNMdtRKmJLjb1vLyPCkQDAXCdDQkGbMK39JhkRCtq4b244yYRQ2D7ablaE4j6qB9rvLAhFfjJhXs2CUOQH9bpZEIr9cMlU508oYMcXpC5/D4Vtgna05E8oFjBX400o9AMXprrcCYV/h8S/OBOKzTOm/r3DlVAXsTsY1e+cCYUP0twjvoTiB2nuO76EojMpf0LxHyPlTSjBp/I5E4rGy3Em3PldNF6ON+Ez0Xg53oTficbL8SY8Eo0HdMSVUDSdJZ6EC9FwlnjuxXgiGs7SCT/Axh+i4Sw94bdjaOepaDhL9/kF4s470XCWfuBIKEM55FoQFzKUQ1AQuQE25EilINXwIpQk0eRyf/IappKEYS73jlsgyhGG/AJRmjDk1tVIE4bcAlGaMORWEeWYWNjiMr2QaJDmck95mCjF/N4Vj2EqUSY1xaGt2flBNBQiDvMLSbpuV0fMc41UecYU+1wjl4XARMZLGdJZyN5E0TwUMeWT0EK26bRxIpqGKoarig15em5Y7KaJUo5RU6zGqaRj1NQfjBBlK4WQnrBAlDQIbR2dpM82kqzkB+ko9TdkSDalIHV0km6gSu6gqaM0sbizkDkGPd2+Q915InEWhfXutoR/ir7y2Hp6q/nw4vg/oi88tu5v3QJxUdq6L/rCY+v+Vuk4KeNx6Y4RlkrJEAHgnSMsHScYoSbg3SOMP1JtwDtIWCrFu+124rz6LhLGsdEx8K4SRjP6gHeVsHR8EsII8d1dQpMxKACPkdfdXUJzqJI+LhbH2KvuMiFgBIN14cMtjo9xvrtE2Hm2RSI649XUcYmkMwG3nsnyk4fh6nQLDx99H4AYoq3vHz0sdKVnBHiWHj4uJWPcKj1+aP+pzJAunoWYzEbLQE9yQsJ4jo1B0UjybT1+iP21dJCdAqnYNqIGepKHsVtbjXADE0SjH4G4jaNVTYLP5nVaI6U3GbQCEKNtDDAQALYGk54yaom10pj3tbYy2Z09pxNGRiMlAj3C57PdidLW+nNhn3UuTPu9tgI0KRZPK4GIYTYGGggAK6fF4sQ8fLvXnwr4ya5uJd/TFEv93WJxNgwiDInGwAi0CIezYnG3b59C6+Ur2YYkCD6trTgaFoFO6yGIdBtDDASA9VPzsEP3JG0NhGRWeOqy7eMBC8fmpRT3Ay+2QI3GkAi0tG8dddz3TwTOulT54xWmkx6EZ1o4s65lMA82kWJjqIHAwvnAOupsiJyr3ZvwDUko+HwLd4u29tUwS1AbowwsqPvOUXf72Pl4hmRt1cbs86LQMnEdZiJiY4SBwML1wD3skDgjuIoVh68dUpc9Ch5kIUBshV61Z2OkgYVCywMkTbQhe2xD0iCCj7QQxExg2UdsjDTQKvb+YUkTHcjJlFEr0K1XieDzLRz7l1I8rUUhFgqPow0sdGun0FHHNBMtab1qPXVIdmp5TQuwD7MQmHgQTfjwfSRgoXswgw8bYKJlpKblayka104rIPjoFoJIDCn7zsW/f/E+8jWVAXLUYBMtSBCSt+zOjXlg8PkWIm82qF5R9hjlcjm8qgARR424ChCSybtzEHxaYPD5Fu4WUQ2m4QZ1P+yV9z5EvGY6wI5KTaeoNC1RSHZqILdE2WdqUiRkhF78xz3g4d7HUESDPOgkxrW0Qd6JGZLdqRI5Om0RFgITl2FXf/OibOrFTdi7sMQtjGWiBdlTpjGMnLajR6ejIXEpADEsys7Kts5CXqOSgKHpFJXWjvpeKWMSmw9PpLZmAUs2pjs/7jmEIaHYHc0oRw1PpyjjJDTpVGKOT0tD2rUUB0Flv/vJBQSIn4JeVKNZGJ1OIbV7IV86PO/FPxDdwpDe7dwHBIjnAYTPqW9bEhMVpTdnAhhgYXDvdlaGRQ9FtF+7pYnBiNNEgJRE6l4MjdAPQsfEH6mvCnrb4qZTF5Gab1qJAJXhLtC+JdxEWu/2CQU0Q5ECWMcttE9gniqRiUqPsqbTTfQmgWpvqQ9k/bcPlY5dijufccLyK8qroHExdI4LZJ8q2eX1ycK4jF8mqMDQxVGWbNQbHHDvK9H+uIsz9tuUEAmTRnxDtpFsjJKEyODCy76hqh+xOPxiqDiiihwjHaHSw8tiNUEhpAEiwUj0bqqqGh8QxM/gIex9wPq1/XSI7SpbC7EGDluyMWnUc8TCc5VAbGHFPlluIYSZOGdpIV72VVtwT/PReQy2EC/2aU1EimInYSLFRfTgcNk3HBrDL4kfVPcxH5As9ilN7HfYDVLcQnTJxqXx8+nejfeYT3hAFPuUJiLDtJ6uVFCmUQPvdpsHo3715hafVBwRX5xhYKIGf4v0KFUYkhZCSzaGD+MVjL0v/oPuOKX1a+lMbEO/vtM5SEVInWQ4SzYQIByHBoZILs5YGqciPPADsZMyk1Kb8H0DHaOq+tnv2OCHrTeCMgxS9zVtnzB1Q0NDtHo3mET1509n5ygi0q+xAoRTTS1doglAPFW7BgwClXwomZrjtKvSpoVpARXNv0M1TUuoTCixOBuhFt5AFf8r8kyBtjgzTguoaP4sMV0qDUasIRxwT/MFeabGBRBOpukPRl22mT1HOL5AhD8iz1AWZxItzARp4hGmTDS2+mTdP63AHB/wqYWrChmFQxaASo9VKnVEIs6G9FQKBD9BFns2gH4yrbEhpDXgUwgEXU30H5+ybrk99dxkmj6VuhrihXufmkrRZEr8DStAP5mu0qdSVzjiYE5LpdAEUVXxYs8OUGm7P//BIpW6wrvw/RYllcLJtIX/AdOrYdKV4gdF25vZ2iEx4FQKkqnb7qzRNJO6kUHkdKYGszC0hCEOnLJvoKv6ZYcQuxPDFlDRDLap1BHa3syeG2Qq9ZKpgRZ7Bo0MIieZskuljvpIgTutkanUS6bI4syMURn05SRTBl0pJgRxdmCxfMUI7YUMeHGGPaDbmaZcDKYJaW8GdZOFWPM2H6zDUcge0FkWTnpLJpZgRKt3M7C7a/ZCBuw1B0DnBk2BcaJxBCEOQO9mfEYBy2dmvwZZyK7Ow+oVOKRSV3B7g/fdpkAy9V/AsJFBZCVT5qnUlY84WxrnOODejbGc8Qa0k+mSfaJx5Hdws9ZX8h5wywdkXAZ9tZd8Uqkrr72Zjci73P/1FmcYNzKwzGTa4TVITXntzeH/iLvcPx06z7FuZBBpHV6p1NFkbBs1e40Dll87z3AFNJNpwi0YSeW6ePhTgIV8Ac1NGSlvO0XKXYMbY4TuwzzqPCStzjGVOurbmxgOXyIz4Je2hRPOgGYyrXI+heLu09iFa/6ZnWX5jlBLVaZLGEGyOrjDn6EV4Z8P+XVqqCY53sPE0oFV1195hK+sXuAgi1P3sxilit3BHf7lEf51yLFTQ1VNu88krsz25vBvB/DvQ66NDKz2nHc99AQK4+y1HYl7oNhzLoOezE2KmQSiYiE6ZR8U+6wAQRjymx8SAh3cLxbhL5w7NUj2YtuIc1fjqT82yz4o9rwbGU+ac490lZWL/fH4rHw2zgywl3dvIM5jfQaIgfr9l3sv+xkBtjVo756xbPe0TDR8NczmRL32Et1+2VFrlUzUyuY0NdXdLvR/Zm1IX8OROIIAAAAASUVORK5CYII=;" vertex="1" parent="sBFlt-I1jG-c467NaXLH-73">
          <mxGeometry x="57.629999999999995" y="29" width="71" height="71" as="geometry" />
        </mxCell>
        <mxCell id="sBFlt-I1jG-c467NaXLH-82" style="edgeStyle=orthogonalEdgeStyle;rounded=0;orthogonalLoop=1;jettySize=auto;html=1;shadow=1;" edge="1" parent="1" source="sBFlt-I1jG-c467NaXLH-10" target="sBFlt-I1jG-c467NaXLH-80">
          <mxGeometry relative="1" as="geometry" />
        </mxCell>
        <mxCell id="sBFlt-I1jG-c467NaXLH-10" value="" style="shape=image;verticalLabelPosition=bottom;labelBackgroundColor=default;verticalAlign=top;aspect=fixed;imageAspect=0;image=data:image/png,iVBORw0KGgoAAAANSUhEUgAAAOEAAADhCAMAAAAJbSJIAAAAflBMVEX///8BljkAkzFot357vIwAkSoAkCZyuoYAlTYAky4AjyIAjh4AlDMAkSnx+fSg0K73/PnH48/Y7N7o9OzB4MrM5tSIxJmv17o9plzf8OQzolVhs3i02b9vuYSRyKCq1LYXm0RGqWNasHKczalQrWsVm0M8pVuFw5YooE4AhwAxkQowAAAIF0lEQVR4nO2d63rqKhCGJRrkFLWeWs+22uq+/xvcutbqIRXIhEDI5Mn7X+TTzISZAabX6+jo6Ojo6Ojo6OjoQMdsyMax5xCUi+SMkkPsaQTjmXNyg9HjU+ypBOFpTRn5C5Nvs9jT8c7qLD/13VHyMok9Ja9MBiIheThrkzkeUk4eYPS6iD0xTyyulD0KvGsUrTDH2ZvU67uTiGXs+VVlsnwwwDwpe449x0o8s9Sq78+jup7GnqYzU5MB5lFyg9McRxuLAf4yx2wfe7YO7KXdAPOkaht7wiXZkkIDzMPECyZznL4I6AP6jZJ9LOY42glVWt8djsQcT5lmiQYkI/PY0y9kfqTO+sjdHM+r2BKs/IqRXEjkoLlx1eQi3QwwD8+amso5FC/RgNBrE9McxhjJBSYbZ44z+BINhhKNSnNMlqWWaDBS3pw0ByBGcoHRdTPSHIu1wxINqLEJcdXNAH28IUwkYhnZHPcFSYrqxE1zbMMYYJ6bOcaKq5xiJBducdUogr5RP6gB5klk/XHVvkKM5EJK6k1zzG+RXM3UmnVcvdZkgHmUqMkcR8MaDTAPp3WYY5UkRXWy4OZYMUlRncBZx0gGmCfg23EydMwS+iZJw5jjmMY0wDwhso5P18gGmIeJV79pDg9ZQt8oufNnjpqdFE2ApydPAse8OQaYJzv6MMcnn1lC33gwR+tOiiag5LBSmmMQbQkKh2fu5jgDF3KZSjMqKOWJh3+cJfexMgUeiq5d/8Z34B+oxPvmtH2aLran/lHwaiIZJbvnxXRx2KgMOhJ/dRO4Bb7jxevPOspqycEz0032/SvTPTkl0JeUdEsdD0DjM/oQz4yJ8+uF9n8ONHkFmgl32zzWhyhkXBPM3NbojgIvv0Z6g/1WySacQqGP1uZOL1HefxjoBeQLkscP+lJITfWhFSkvkZHHcWagpyGcQnY0fnpW3qdSXf5+CXlOwyl89DLfrErbYqL9pSDDhFOY2l61c1lSoH6aH4BnIZhC9mEdYF/uX0z1Nn0BPKbBFBYNvClVmqL6UGgMGCTZBVLIBwVDfJSJnFEqnJR5Z6BUWMqh4lRYxqEiVdg7gf9FrAp7O6hDRauw9wJ0qHgVQh0qXoW9FSzoR6yw9wRyqJgV9sYQh4paYW8I2LuBW2HvXBwhIFc4KU6+VlE4jK8QkNXArrC3KHKo6BX2DgUS8SvsXexlghYoLHCobVDYu9ocKtUflMGl0OpQESkcmXeeTS3LN0wKuXmny7PZoWJSSC2Z4qXRoWJSyFNLqvjNNGNUComw7B5cGxwqLoVEmncrjZjeoSJTaCoO35nqTRGbQqbMlTd9mhibQqLW5qG1dTd0Cgm3bJDoa6aNTyGxnY5YPw6OUCGR5jK/Jk2MUaHNoT7W3VAqZIl5hfrgUFEqJInFof6uu1H99ruGKyT8zfwFv+puSBUSatk2mN/IgPMpvSHNZ7En7z8dKlqFRAIdKl6FTMEcKl6FRF3NXzL+lohYodWhftfdMCt83N38g/Pn16BWSITFoR5VGxTazgt8pomRK2TcfNPMv7obcoVEHc3f9DdNjF0hSc7mr/pTd0OvkFBLHee+mxhRdc2gkEjLXXpr1QaFRJgd6oixNihkwuxQV6INCgl7t6SJ/2uDQpJYzkLu9Zk5ZApJZpmL/hHGppDIsueSm7ivzarQVndriUImyl0SgE8hYaTU4XKECq1p4nYoJLaNDO1QaN3I4KSwSW+Lv1jqbi1RaKu7tUQhY9A7kLAqhDtUtApJCrzpAa9Ca92tHQptdbeWKIRdK4NaIUsBDhW1QmvdrR0KCbekiduh0JombodCIot6PKBXWOhQoypU+mXJrNRVpyyzd3g4RVX4ov2g7diIbpSjdRobwHH+YApJos24QH71n9ivzIOc5g+nUF/yW5e9AyuzONQn0D1RwRRqH9PCw6KPCHOa2HQ6oyaFRGiyEVeHy+ikKc4Yg7xWQIWEPqR3h059S+hGa9ILmNMKqZCpXwmXpeOViZxpsv1PwDvgHRUOgXdf/rSh0Zvztd9MrH9rvEB/Le6mELKYuJNdD/+CoNWl0rXYiqrL/DOemkz3Gfh5195HWMwI6hNZJta703JzFVWvxWaciuvrZrDbfCQlBmPa+wgBzOH3JLMk9XKH8H0opZIEfonwDZ44N4RYhWs45g8lN1Wuny/d17duPLSfK2qOHheuPPQs89680R+JtOzMLcNi3cir9Zl489c78MAbZ46MXv32f7w0pMfMJzzx3sNz1qQ2JYHaIjem1QwT51DNOw9R+3V9Qt8D9kOeDAK0xS0HTwP3tF6doy7kqrYkATE/1t778BMmPXd5MnFK45hj9u6/U5eBKC0QuSUhF4Bp3V30vLbogrGtsxUpEx8xegLX10627kayX9TUEjhGM+Avph/BzVHJftz+6s9h0xwekhTVCZnmiNtY/YvZJtCjmtBl+CUajCBpDiY9Jimqc3Bv02XQ1wQDzDEZeo2ruKHpTFQ8xlVKBElSVGf+7mUhx8S5nhjJBQ9xFaPXgEmK6oyqdrbmPHCSojqVupPXkqSojrM5RoqRXDg5FYOjxUgujHal46rEdgdhEykZVym5adISDUaJNAcTaywGmGcPNMc0aUSM5AIozZEIt1a3DaHQHL0WcuNgNUfvhdw47KnJHFPewBjJhZneHJW8YFiiwZi+PJhjwEJuHLYql3Vk9NjoGMmJn+aIIEZy4evtmMhB3XWkuriZY8KUbHCSojrzMznXVsjt6Ojo6Ojo6Ojo6Ojwx//NX6s5YkvqXwAAAABJRU5ErkJggg==;shadow=1;" vertex="1" parent="1">
          <mxGeometry x="210" y="215" width="83" height="83" as="geometry" />
        </mxCell>
        <mxCell id="sBFlt-I1jG-c467NaXLH-91" style="edgeStyle=orthogonalEdgeStyle;rounded=0;orthogonalLoop=1;jettySize=auto;html=1;entryX=0;entryY=0.5;entryDx=0;entryDy=0;shadow=1;" edge="1" parent="1" source="sBFlt-I1jG-c467NaXLH-80" target="sBFlt-I1jG-c467NaXLH-88">
          <mxGeometry relative="1" as="geometry" />
        </mxCell>
        <mxCell id="sBFlt-I1jG-c467NaXLH-80" value="" style="shape=image;verticalLabelPosition=bottom;labelBackgroundColor=default;verticalAlign=top;aspect=fixed;imageAspect=0;image=data:image/png,iVBORw0KGgoAAAANSUhEUgAAAZ8AAAB5CAMAAADRVtyNAAAA+VBMVEX///8rQLUUdc8cEnUaD3T49/wZDHYbe9EYNLPl5/UWMrINAHQnPbQdNrLFyegMLbDW2vDw8vojOrO6v+QAAG6Sm9YAbs2hqNsAcc5KkNgkGnwUBXIAbMzAxef09fvr7fhNSI6ttOCZodimrd18h87f4vPO0uyDjdA6Tbq1u+NebMRwfMqIktJodcdTY8FCVLyMibSEsOM2Srm60+9LW74AKbBWZcJFP4qin8I/OIjF2vLT0eJ9eaqurMqkxOnW5fYoH3xzbqS7udNdmttqod2avugAZcstg9SOt+UuJn9UlNlaVJkAHK3P4fQoR525t9FlYJuHg7F3cqegQJTFAAASR0lEQVR4nO1d6ZrauBLF3dAYI2MwaxKWAcy+JYTupCfLzdKZJJPJnSTv/zDXG9iuKtlicXM7n8+PmS+ArZKOVDoqldSpVIIECRIkSHBOtN9+zF7EjOzfb0vnrucDxdtssxE3PReNRjP79tw1fZC4uwd2HDQ/nruuDxB3zXtix0QtIWhfvL1HeswR9Onc9X1gaGfvy7m5aJ+7xg8Lz+9n+DQatVrTwl/JANoLH+9BudWaF4/uvrx9/qeJ53+eu8YPC5/jZqfW+PvTf85dy4eLmNelzeyXzrmr+KARKz+Ni0+Zc1fwgSNOfpofk4jOsYiRn1oSzjkesfHTaCRK7QSIjZ/a93NX7bdAXPzUnp+7Zr8HYuKn+eXcFftNEA8/jUfnrtfvgpj4SSIGJ0Is/NSenbtavw3i4SdZl54KcfDTuCMKyrx6+fT166dvBvdexQeNOPip4dkn8/JrxUE+icjtgxj4afyNSul8rVxd2khfJfzsgxj4aaKlafs2f3mZ8HMI4vBviIFflcuEn8Nwen6wOhh49CT87InT89NEcetfCT8H4/T8ZGEGVftxOuHnUJycH+zePviGT8LPnjg5P3jX9FfCz+E4/fhBi1O/e0v42RMn5+czLOGVf/gk/OyJU/PTQKHrlwk/R+DU/GB1/ceThJ/DcXL/Bpu/k08n/ByOffixDiGYaISk1DfQAayAuk742ReQn0YQ3he1ZtY6hPD27adnd48umjWCPRNNpK7fV544SEfyUyq2uvVqtVefFAb77PBlcsNyv2c+2C8POwfRXxpOrIL7k2FO7PnSoNCt90xTu63iPgnmlqnd3h5FAX6yj4LYtn0z++W7Ly7Q/vMZPFP82XkgBwv49oeL23QYP52JsWGKosiqqsrm/6WN0RXayhv2pmPVec56UF8ZE/oIWLsYxO7tpf5U2hasqeMZ53nvReXRUvKZylazflHE1GJ9sdI9U82iupHcBvmBs3u74YyMOyLZ8Pkj/9GuZmSHd3Q2yU+mvNQUlUl+MFXWpHlEvYcG01SdBZ9TlBn1WOsfzY9ryfl4YGiy/w1MV+R5SLMVppapwSJ1WWPGMNzUwVwKFmQXpU0L4Y8F+amBrmOdrms07zjZOM8vvCGElj0Y9jqV4qc7VnSJgtnW05BqT5YaINWF+RhmqKAE372yP+3JKn5elrqcIssrjWvqpsU3tTCVaVN15SaU2AA/aOfzrnHRfMTPlWp/3E5DIhk7ryskP8WVQlru2q8tOJ25PA55TtdGsByKn85KIR9n2owqMrfUQkxl2pLjkYcbDquOqbMQ3xPgpwYPh2YbEYcQnjVpx0jhA8lPX+abbkOVKBeQW4Q1lQl5A6ZCgp/Bmlu2vMBllvUIU3WdGndtg+MedjVc8914kB8wVL7/9Tkq0fDOGUFoU4FAxnJwkJ+5Fl5lqyWv++hdZcotgcZSg44D89NhIe2mGLDM/nV4j7BNrSJTC1KkqUyb8BotwA+cRJ7hTA+ER9YchJc9FN7nET/VaHpM/AM9+zxi8Di1lgMEYX6Wod0atllXyNTrOjC1Hua9uYXt4OcHbd2IJLl37IEndBTLcnBBfiZCddbm4EUzetaAYKrfb0B+Nr3wtzApMC0MhUyVZ8B9C/gHGxpHXPj5wYk3Ivhierim0BrtJeQnpwv1rRF4z0IWq7PE1j63WxAj1YPs91WZsYipCpy15qKFMhWtHG34+YHqWgxtMXWdSj1F+mAW6ZlNaNClj8QbWvXJsL35kXRfe1RF+gSas3qCo8cqbEk2mo+fQw+FPKsJ5cM/RevTooj1yLn1iaeYuSBXqQWGVt49tz8/iqfGOiI9SYGivEUU6ZhKzHwKnLls+PhB6loQ32si6vpnBcXfDFxpVZFVWfFJbq0H3oNJZbJ0M+rVe8ZSRy9k0u7BA8bPdPdwHQ8fHZqKRk9Hhj2GyfrGME0d3TD0naRRk4Sfn0MP7WQF1PXTCo5fS9BEVTfKxcGgUJ8qbksj55bawK6nrHZRrNwcLaaUnTbfnx+J7RTCBpqqy7OJaeqwv1Bd6rAgX8DuIkv17SzT6SFxr8J51m5bvroWxsdodf26gvcXirDBZGPHc2dkeys85uvgIaYGBthgA9qEjbfv5PDD3CFLTf/admXcQW3pRTVKVXvZqqDWLUNT5blf3JWmkD6dkAgeP+SpENu4VnU2vZkuRl1aYqS+/NcOUL+AX2d2sesXFWL/pwvs1wPipzjWJQ3RUwKKjzGw9G7DRY2yXVmQ/DBt2SvY4+CGWFLJ2/KHsKk3/jJzZqdAIjOVAoqPIQkN5ZEMfXnKzw9HXRemuqLqFsyORoQdTfxrb/FUbmHE69V26+eJt8Xt46cKzFOC9pc2RNwAyCimI4NKwGvudBHFj7ryYkdlLPb17YTfBdOPHLQss7iGKgavZ2W8wlkF+xJbo1/4+aEmERDZ0xUqwOTsHFRew8+DmSGInxHsPqCtO7gs2PgKseyGounaHdYEP+qNv0sNkQbYDRMoD0BXSmUI7QWmLGpwFMFrNRzK3vFDqus5iuz5BOsOLj8f4OfBzBDED5RvcsRWSAq5RHrNsAQN49KM+WGrYJfsY4Lcb3rQVDyyIYBLpMaG6eGCzaviUbjjh1DXmSnuciDqYcM+n5CuQPdWqqT34oezQvNjGqwP7MYOQDNvpzXMjwI7xAp6OMUlEPLDVpHbkaB2Mrm6QTEn9AuPH6yul9SijCjIHj/5b/DjD4R78/Mzh69XNxEjqAOqI5G6HqyQ2DhDtQXVGmiVo7m+EY0sfVyOyB4AnlgmtVUHvBcruB0/WF0j+e68Avdym5/KS/jx6wh+8JqPaePqMGQtBRSrb/3oRxtOzM6uGeIHz6UDuPbVimTBlqmKNC+EDCLYSVb0z+B8ijrolh+srnnhXR014L82P6/Ap5nbq3B+6OiHvJ72eBUHI05fFCkMaV2I+cG7nXDFvJ2w4UTumKpIN9UCJzIMRhxbkqYW18F34nltyw9S14Nrmh5JQWPQ0mlXhLom6PHzw4lpMV3V5M18QuwV3wC1omskwAtdjwz5YWvsoW4AP9v+nFmT0WvLVGVldIv4TQYwlQmZikMIW37QlRJT3uaVhvix9t3E1HUwvhOyP2Z2TnU1AnKT00pRcFUR4ucGNSrUU54ACYm0WwGIsQEd0/IgU3W0q57lqGt+tEpGI9pyZGLqOshPOTx+zVRt3Pc7085Bdd6uMmGNdCIFBC7JlO1qImJ3zjRV6vnbRWy7CL8HSZYsR11zhw92C3aGdQWdaqTUNdj/QbFOVJiy9k3iA5EgP4YrIyA/VDgShTR2qz1aLPlNlVnPqxpcSAuCjTn8NIG6znH7CxZNlo5+8oL6NIqfIhmVDFqsLXPezw+p87ZTIn7wYhCtczx+OtENzpTxLgJy4FD3bYcE+YHqGi+ld9VCcQpLRwuq60PyD3RpOw2dmB+capOqc/kxPVx0k+vqdr7KRXkGjqkcfpC65ro3FCVLpd6lCXWdItU1yt/pCmS3sO0q5B74gXE2XzSrEJX9ZhV13YqFH6iu21ylhD2kpaOvvsJJaUAPH5T/NpSiG52tO/8H/KQGoYmublluQL1zkKX88QPUNX8mxuEd2739gp/S6prIH81U9chZSHXmvNxh+uBU/JhfS5EM6U6ggN/Bw02l+UHqGu5HeS/Q4Top885S1//C937LC/Jj9rWqBA8vQFzby4vSgZPuyfhJlfprTkr+DpojOFGoVcxUmh+krqnQi2MwGj5v7OAOYo0zfDjnfwrGSgnjyBWNcFHBZBFo45PxY2I4WslhprqRNjSBqyKmKirJD1TX3NWpvkKtay1DhdU1/3xWZjAxxiZHnIxF1iEqrS86OSGckh8TufJoxTfVEVBge4FtxCyl49codj3gzMQKEm8f9ohdh/Fjo1OoTiWFmmWcQAtYPlIRND5Ox4+F0rC3WJPjyIlxTmBpB/6ZnSwZu+ZEujS842xHcbC6fkEGd6L4sSteGKl4FnZkSQEsl7ToHVcPp+XHQntYZdhUJy4BtyoEdlxJWPwQd/HDQJTTHLgMe2tBXF2Lnd/OdCU6N6wN49f0BhCN0/NjobyCptJzJV6XiCFLqGsTOby7wIjRk7m1xkn+Pfz8zV784E9yUAm4wcwFjC9zzgYuiM2Jk/CDTW3DICJzNjDh7jCVymJhFn5uNcvJDEGnXXzBJQ9OVqi4uib5qY9xrctw49fhB+pKhvWKhYVC9KVT8FMmphG4anblPPpYImegkXZNJPZ4MPmpkcd8+te+yU9XlB7REgM7Rp2uwJIzeTJ2TfNT1tQpeveA3gxAYXuVOic6k61c9Yjzp4fwM1TUDWrlEj1+8GYilf5SNY1SpiHaIUuoawcDQ9oe1ddv+lRWQOaFPUywuqa3Tml+WpqVJgh1JVwgb4PNfbRJjQhqL+zfqBJwHMfzUzQVtS5BN5KDQ32bL4Q2R6eoEQ37N15YFcPkJ8v7rjTsV0ejap+3x+4eSag85Xwhwk/RHqU6PNAONzK3YSUsLNVlkNvi2HX8DGQEHs2Ps8XAVLBEh3tGu30ltLulroLcDjZucQwnb2+R5eddR2G7Bt1DXSN+Bu5ND0zblL3eVUQn5HaJLTiTRldGnhooznzbAMqNv2Mdy09p7La3su56gipnoCz/bVfD4Vym+W7OGIx8yZ/yinM0P3vgqUbz/e4kk34HPX2OP/0AfnZ1trdKF9VuqzWpGyt85J7tWhpl/Vuhk+WoX26V+8YmmO+qSz7HcSQ/GS8b0Fz0TC1Ty/3RRkXmeBswI7zKV5WNYZs6WgZPoOsqfSWG6d8O+2MjpSt3kOyjrgE/7cDigen2dTbUOThf3kSHCqsw+0l8RQfTvEM5R/IzBc1JFxhMIaCSEHimStqCmuOzB55qbL/YSujKG/jdD666BvwQY4HGtW8ctMTPdJpQNtvudxw/M9G9J8W3iC9GxLqBQWvq/E/zoFON7dvdgas8OvYT4t4C/Aifww5KU+oAKhfeAbyj+BE+kxzMg9+rL+EDeCmLn0NONZa8A1dPbuGXIeo6eL5E/Ox5UPeIXWph40T+LeKqBH+BwZCg2KUWNmQyWJXlqusQDN55Hgyr66di/Ije3GB6NxgaqYs+6j/8fQQ/4iMWHWeeCF0fIlELORsX+Lr3SL3wwXcebj917edHeBSgOltpJSL5Fyzw5BH8dEWuk7FNxS5KJK0kKGQCuEDq+sdP+pc7/PRnHqYv91HXAf82ibq5yrWciswXV9FzF7j46hj/Vgi7SclnKvHKVOcm2jnSF19ZyKLY2WM8Ivx4dRtwX/upa3A/hUBCDH27mJVWooWLP3MtGKzaUfogRx0fhqbyGrmPF0nA1Cn3Kk90Q9WrytUTPkGdX5Wg98Lq+n2Iuobr0x5xTUOgyuqIexxoMAu5Y0xX0FmvI9c/3XV4Z9LlGTfM2THIy01cdpSVV0quZ8wDhiN1bc7uV3nU6G45T/NgcBDq+irMvcH4TqfHT4jRFdkIvSK2aKjkPMRU7QZHHAsKC0Cm+AG/8cd32v0x11Qm03ee7pCbM41eWGubidci882kWJj5YuQZpK6tHbd05cUHvJ3w6n0e5bxf3WaCCFfXVP5bwVipINmCMV1W2LQbqVRK3SkLPms+Ka/mFK0FGGcWyO+Vwf7CaANNtaIeir6sR6YXZMoLCZmqrA0/rVWjlMu1U0NiQ2yLnEPBk8rlrzeD3c8yuQ+vv1aoEwmP3z0OIh06fOj97UF5Pl3LmqYpimL9V9rM6mGHB/3otKq+Z+Ux/67jEgB1kXDkb3Kt6mKseqayzazXEsz9KBV6i/HOVGW8qA+DzmScGk1Hm26qx9+y283u6Uqlcnn77f2v1+9/vHhn/oPOp75MQ4TSE5J/0B4UC61WqzAc7J/qUhoMC/aj9/OHi9s509SyWV5x/+vQHVNblKndemo0TA2nqQ4+x71FYHZPX+XzlUo+/ySq1cWR3O/PR7Wcmi8XN8VUhnOa2L3DNU4k/PDR76dG5eFNKmT8RMzuCT9xYrBJGYVUdZTqUutcG6Gxs4SfmDHqWX9so1xcc6dRzqmqhJ/7wWxayBV7Y+6qLxf38En4CcfQmC66/BYKj50l/Jwb4bGzhJ8zo/0uZnWd8HMUYlfXVjbWuSv5gBG7uqauiUsgjK9xq2vqqF0CUcSvri/T+fuJYP6WiF9dJ8PnGITlfZ6Inh/nruMDRuzqOl35lojrw/GqgvbaTol85SpxbsfgZyUfIx5/e5NIgwQJEiRIkOD/Hv8DDa3gfwgF42MAAAAASUVORK5CYII=;shadow=1;" vertex="1" parent="1">
          <mxGeometry x="337.22" y="236" width="140.62" height="41" as="geometry" />
        </mxCell>
        <mxCell id="sBFlt-I1jG-c467NaXLH-93" style="edgeStyle=orthogonalEdgeStyle;rounded=0;orthogonalLoop=1;jettySize=auto;html=1;exitX=1;exitY=0.5;exitDx=0;exitDy=0;shadow=1;" edge="1" parent="1" source="sBFlt-I1jG-c467NaXLH-88" target="sBFlt-I1jG-c467NaXLH-92">
          <mxGeometry relative="1" as="geometry" />
        </mxCell>
        <mxCell id="sBFlt-I1jG-c467NaXLH-88" value="Interfaz de gestion" style="swimlane;whiteSpace=wrap;html=1;fillColor=#dae8fc;gradientColor=#7ea6e0;strokeColor=#6c8ebf;shadow=1;" vertex="1" parent="1">
          <mxGeometry x="530" y="159" width="191" height="195" as="geometry" />
        </mxCell>
        <mxCell id="sBFlt-I1jG-c467NaXLH-16" value="" style="shape=image;verticalLabelPosition=bottom;labelBackgroundColor=default;verticalAlign=top;aspect=fixed;imageAspect=0;image=data:image/png,iVBORw0KGgoAAAANSUhEUgAAAPEAAADRCAMAAAAquaQNAAAAUVBMVEX///9h2vtZ2ftQ1/to2/u+7v31/P/u+v627P3C7/3L8f3g9/7z/P993/yg5/z5/f/W9P6t6v2I4vze9v5y3fuR5Pzo+f7S8/6b5vx83/yp6f22NKMxAAAOIUlEQVR4nOVd2ZqrIAweQetWlzrVLu//oMdukkCQTZ0z438x37RVJBCSEJL49RWMMuvj6I2qzofwFgGGvK4+jcd9Vi7auBfSO+OMRRPY+LEvFmq86NXG7+lCjfvh2HPQIdCxvg1uu+0RtVPjvD8u0HNPZBS9735FWRPQcpNFM21ni1Hg2Kubrk/vjtUHz5YPtZbcV9O3kNH0RhrN9upFs0/PGgO9j5ajH1jNqalXL5pPzg2fjPQ+W96c5KNNt56z4Sa4CyPnfBr2XTK+iC07FkW8sp+OtOK2zbJ4ReoIXDHBjI+s+PhD6xNb1iZl/9jmp3X8/XVVCiW0cCoYr5KXoZW2WUcpUXa2McSGM3En413WvphkSCpENA/X+faAneIdJudCWSUWKjRTGXq0Ni7omqFDFy1K03znAEk8V3/PY6X3JhVKKHceU02Dltl2lggk+Ju8or3JNDM2x4Stshb4jb7+G5K8AC1WSETv+EV30bdCM79rW7wr197okRxxEdeyJJASW8TikfXMZRdZg7GK5uymki+MtQM5ohZXb6ShIF/NXylrGxZRMnuIZFVnWJ+AFbScsCjEGDNCtCAcOolduWqBFfIlncmaykUH5nhsOYAZMV9cSCJJsUZOmGDGLKxScLkXBY4opy5aaYdGmmbeo5976dfOZrcltCPfwg0EHmfnjMilWazAb5LM4nbC9+g26KHopk7eLO9IsdBm8WceG/kH2z3Hbbql86DAFUJs2I8v5l0WvZjjiIW0xO9zEHy2wUJOBUc5qIZE4uyHlhq8OPqJb7Gy1vcMXMTDXG4rscweJU6J5505ySAx7HO2yjIQDHV2uu+A94IswR/Pbi6Ns8fS8sVkfzD7ZfdCh2lEH1wFUD/1Yn0bZOo3c3ba1TqXDnfu9mnqxfrCWvCTycRUQWz6nwS7c2buubZ8IDjRw+ki29Avgj2OqVqxKNxvdsTUZy8Dr1VJ9nJXCUHvpDG8IB7lpQlLZe/vZRmn21HciEf5HfENEsV+x83CsuZrH0EFP6qJEcGxZyuhA2+PYIoxwb4k/yKKFS8881Ivv4fiTibY04bYkGLwKI/DvatKsN8B0mE7ydWEaKeTxuZyP2ROt6MY6GNnvYIsLnRm5mx1DT9igbj6ipHxwdExhLMZInzm6ztBxCQ57sUPaFYT7BZxPfEXfon1jyW8905QET9XLlrVjh3Pnd2L/hD7Y7c9HtRLb+kMJbejjso23B9f/bwPJ0jdx2MNvdVuDgbhiVk/NsLP+wCOQGHMCvRX6w9mCQR4Ypzh5X1IkZQSGrRB0sxBwYd4YlwhvA8OmhBJLajHB0/pJZTT+uEvqYdFC6WWZG1Aq8R+nRxDLD9nuA8vdOgp6w6KNGsXnxejeWPiUNslVM5PI2IAS9sr2dAAgWLSTj0h6UR1EC5yZrcvqDdUx19f94mCynzxl2R6UEv/6L6Up9QJpo8fWg6F20kminajVz506dpZcqILS6VkzGFwkpPlnNT64OS4lNOALasPhLB2ClKZ41jkDDI3WmwqqqG9Y15EPSSlLNv2UhR5niRJlmXj3zwvikvbliUcGPOZ5d3H7gvA1VZ0NSkODXgkL5HAgW48SQ0SWwiubWKscxNPpW1xunYxl2PAbcHGO+PuespbjaAQ62p9q/oBILokKZO2Sf2g9DlxXsQCsp+TP1JeJzLh5caCCw7xFKxybLPr+UVqIKUU5Zyfr1k76fJsY8EFNvJPIXO8nDpGZ0gsSzhn3enymG5h9dnZQOEA6jPpo9WJlclOxOf13QEvgAP6zYiFZIt/N8sNsU5KWhkbLeNj3of1E6nisKb6fPXM3CE7k1nBJhL5EyyKz7eq67r+hfG/6naOo8/PHi3zc7aihhpOsY9NwfKiLYejIfvnOJRtkfs0z+PTKkQfH7NrM+qPdLsz+MbpGA0dxt10eYEE0dnS7F1U5pzgp6XQn4ryAAxRVy8F2EWNJuShLE792YZuxqsFt8rp3fDEF63Z5WMNIq+G2/ku9BFNztL0Y9EZRvy+DHdfDNM7Co86xwY2mCjno2HA1xJ7lHk9kj3flSo8+Dg3CatY9VnoO22D+eEq5VghmWYq2dEBmVluEOEg0JXnHrMA+Vr1pB2M1g8LCLnW0juuW/G/EuwPsuyoxFUjQO6M6iBOoIWr7Z4fzbkmo3+ktm6B/0rev4CjJOZ3nA0Sc5UN8E08+KutdUVDWOQ+1N90oYBJ3YuJlNka9MnzUAieREpjJpj6Nf1ao4jFbmEqTU8tF2jdtIRb4Akotnw3cyet8BJMPfm+dUTz3kGGJHQFgxqKZXEFngZwp/+ZEBDIWHjdyO/Lmq7YYJtPdCBKVKgmjfBoIt69g+nx372CUwrkIgbJVpIXkzQK+c3K9izUWxmvlRUJ2BpIRrAEnXNlIICfGw5opjK1eDRRHIfZGEBXtehBRAp70TzgXmg+BNVuoo0YkN1O3ZWp6oWbPNqNGg0ca4YJSOtpfUNuDEu9yqjVUUqSWkWhqBh2nh35QZYAM2V5qMcDiTMrtoZxK1y0s3Y/1RQ1yDIUmhmbeY6ctsFmizGoLJbbiK3hdHv78McNl34vD9nlY06QC0lBIk+bfni+JYJnylk8ILTm55DRYldcYL/CuPHSMRHcKb/vFQ+cXzJysQ1d0KxEMLsZLCagKippCHTWVktYciym2SFVTJmKVojUvVIFGZrkARNsob6rCPWg0ShRAVUPvO6m9dhdkvtgCMxnEVLCM3VA1eCBP1vobsBlDwqvChtiHLU1vVhMPg20d0UjYHNUf5S0jiqxER9YJosiEtO5HeSXoUwdWUQuwavEMKAKUCqsuo07IYItXTU1HPVuXpIaytSRUUBAG/SQoyyjfnGWgrStQYvYOoYf3FWBKSajaOe9NfQogYhdngKpYevAw3kK+C7oYJ7T2BLEbdBFTfkB+vkp1pjhYK8NlqV98AcqzoBug/Pvcu5OniFQLHKhpTS6jeAMJZP1OTYO/g1IMlqrgOXcUlyobSllfBjpfYC4j8iBc8t+gUYGWDhwvbgV+arVHlE8YnWeRM3doE6yY62EhJQvYiRd/cupurek1qNJbL1ACS91/bs6zyjigA/YeVOrsB0VZy4b7BpQC+oo3+rs828I6kCFL+dNrVwYgIwpI3ifAmmbysmd7r4kUATos24E53iEGUgMS6YS2DG1xnLh5msMEDuez4oTUfEeQX9StRpKrDR2TK1ZU5hBfMonCjb5DFdYWSAcU0nlH1ouY41mxCdNPomZSvEln+wWAJStRmqOwm4Z6/ZEcJK9nP5K5kxgNRHIs/SQJdYUkywLV7Kfg1QOJAUuOp/mzNo8kOIAc+EN2SG4vzne3zren6zeoT7ej831mdHV7er7/2ZX72/vtL/98Q59IPvzc/1hXyYkDNk3u/NX7/BMYoFzJzCLv+HcaYdnixucHx/+s/Pj/cUIKKrgT8WBaGTxL4r1mXcM2Mb67DCe62/E7MmxmbMxe3Rcpsao+xtxmV/7i7390sVXK5zxd+Kr/1YMvW0ZznxneRJfO8yF+dpfvtMDe8tpe+A/z1vU5iOvkqsp8KdyUx/wyT++0OaDJaARo7qP1s4/fqDdWY75Az9fR+CS9VZ1BBYskLqzWhFP/EA9kLN9PZDz4vVAnthZzZc30fuq6/PCzmo3vWAb17E2tiqzt8MabD9bZ6//gTp7oiTp9rUUH+t2+1qKhDNg03qZwC2wDcH7q4lqrnv7/cfq3u6vtvH+6lcLntpJjfL91aHf37sGQt4nQcYi//fvk9jfO0P2914YIap38u6f/b3faX/v8Nrfe9r29y6+/b1vcX/v1Nzfe1PFrOzl3bhCE+7l/ccBG7Xf+Y7roPeYZ/RhhrVxKbDhe8z39676Y9ijiBw1L/3SeFj3ngik+EuNZvZyzv0iipVMLz/t8psobjDJsWcr21Ec/KhBmmM/Z2TwwDsgcC+uZJs6Gx9PpNvpY6WaiBvksgORZ+B5YNUWJ0w99fE+FJQJ4m5xoTAF95sdEeJ9WM7m8vLEeCLA+1DTBFunwgL4eWL8ILwPrrku2N7CH1z73ft5YryQefLTAVtbTKqOE7tZ6WJthQVT20AtC2SFEodJjIIe6ynGnER/WPElN4CUIweXgJQO/EwlHLCJ7ZKr800nW60EcZJpz1A4mYhFL3PtiBezJvGaAijV49x/d3TOTrU0ltbsxzBs5B9sJ2zKiNnkbBHkDtpZ1jJHw2PnyouzhVW9geBCKbE2j2s6KaMf866UPMc7m40BGHQvq9wVYFrMFxdSKBtXTlMlDnALp9liGaO6JyZD8yBNMGVDy7Y270yqGVRQW9/+eAAWWJi/MpOC9hi5Gx6kdEFmsrPB6LgnJ3oBZHrPjfFFeQuPJlSmqeQL4zm7AmQJbhET8QDMHdR27fum7P31cTlyOYuI37SzBzPmPAor+sEiREuhl83up1slVpffLIK/FqDFDigqjZBeeayWX6gM2T8yZ48tUymIOSR4C2X8BupYh8XRpacy+s2dI9wFjPd41QxY9i9K0zyQu4rxKnkRnbZZR6VDsbONx3JQvPfPhKYue4dZlwlOJQyozOCBq6xQ+Ct9j65gYMt9sjZ7Ez21jr/fJrZ6grbWlgJe2W/oUqIwhwZsK830wcGS4pnCQCSUsjzahj2ONsMwW0Ru6pZiRptxssquIMvUrYzUOBuM1z5HJA1RrkZuOfoBgsee3WY7NtLry3iHuyGR/7b6YZMGpGx9kxtlQbWbMl2pDxfZvwKOlLXxUKJ9uK5sezLTeWx7owxcDdI7Qx175lIulbxQ9GrjS1ZH8EWZ9dP+sarzZbNThryekiLiPlvAyfMP4tKzfzPV1pIAAAAASUVORK5CYII=;shadow=1;" vertex="1" parent="sBFlt-I1jG-c467NaXLH-88">
          <mxGeometry x="65.25000000000003" y="40" width="69.18" height="60" as="geometry" />
        </mxCell>
        <mxCell id="sBFlt-I1jG-c467NaXLH-85" value="" style="shape=image;verticalLabelPosition=bottom;labelBackgroundColor=default;verticalAlign=top;aspect=fixed;imageAspect=0;image=data:image/png,iVBORw0KGgoAAAANSUhEUgAAAOEAAADhCAMAAAAJbSJIAAAAn1BMVEX8SQv////8RgD8QAD8QwD9nIf8XjT9rJz/5Nz8OwD8RwD8OQD//vz8VCP8NAD9gmT/9PD/6+b/+Pb8UhX/9fD9o47+3dX9l33+wbP+yLn+1cn+sJz+0cT+uKf8YTD/7+n+zML9c039jXP9iGn8WSz9gV78akD9p5H8akf+t6T9eFX8Uxr8Zjb+saL8WyP9oIf9fWH9elT9jXH+vLD+zb4Es9aEAAAMoklEQVR4nOWd61bbOhCFY9mB2E5DLuQKSUgIgRKgtPT9n+3Y57SURjOzbcmyYs7+2bVc9MW2NJrZGreCY3WXm0OrmTpsll2Np3X8D4tRrHyP1FgqHi0Q4SRsLl8uFU4A4ajZgBniSCacpb5HaK10JhLeRr4HaK3oViR8avpDmj2mT5+ecCUSbj7BU7r5n7+H7dD3AK0VtkXC509A+CwSvsW+B2it+E0knH8CwrlIuPgEMc1CJOx8AsKOSNjv+R6gtXp9kTD4BISBTJj4HqC1EkD40vTAVL0Awn3jCfeA8KLpgWl0AQinTQ/bwikgHDeecAwIrxpPeAUIl00PTOMlIPzZ9LAt/QkIJ40nRBnhQdPDtt4AEK4bP9OsAWHf9wit1QeEw12zwza1GwLCbsMDU7U/riBq9cPHZgem0eMxkEbY8NBbC7x1wm2zJ9NwCwm/NZzwGyRseOitBd464azZoXc8g4QNzwkf54MJwgm6h0nkUygXGB8H3jphB6wWatPxqQ0ISKIOJByAX0nLZdUrFHIlx1sLnfDyICOqF91YVZ+6IJ+bHC6PL9EIuztwExOvhGhwO210GmFwBp6D1CshmOnVmXaJToje5ePaTq1CtTG10S7RCe/AZKolQuoUSiNFd9olOiHKeqfXdaAwugaEWsabIkRZbz0uqlEoptQy3hQhyglrKdc6ZTA4nRDZMcLzOlAYnaMHbK5dohNeI0L9Ua9PaJKI9UlCJ4TTlZYnqFEox0JM9DrhAC2qPgNTFJamWlhKEA4R4XGhvE4hm0F6nC2lCAO0BVY1kHBCydxUv4QgRJtM4n+pTejXP7aaBCQhfBK0DUptujR4gwhC5ISOtW10beqAlezYAZ2LIEQzsp4KqU0oiUStZAQhckITq2pdgtFIW7+GIDSIjOqSSURJEJ5w6G0yNIIQ/lD6DqUuwZ0d8XgRhHCX+YMfwnPbpcYwaCOmCIIQOaGJTMG7LtLQpWBIQyxkBCHM9jzwhJ5rc1SWjCAcgveQyNi9y7NpLNYDb4rQIOv6rhu/lSsqW00RAsNJcuAzphOvT6mifnuCMHgoXf14V8erV4WcISjCVxCY6hWsd122fJr9o9eChMiOIYXeX3wS6kYMhhCF3lLW26uligq8ScJ7i6w3qno4VXhfkBAtarqj44+8HkIl9wQUIQy9NVdO8V/Hqch9HUWIcsLkC13w13EqsvBHEaKcsJT19mrHIfLBDCFaDzWH4x+tffrEo6KEa/Af6S7VD/LqhD/2eHOEl8COkbwQIfxveVzxkx2VyaUIoRM6EcwKK39LPv1sUYQwJ6w5/j/I45JP5YMZQhR6a6c2Psjjkk8G3jThDwvDiUcHbkSmyEhClG2RcsIeHbh0rEUSovsg5YQ9Lvl0vEwSQteKEHp7PBpG73lIQpRPkrLew1C5EiJMbwoTLiwMJ8P9mSuhZoex5vFmCTvgPZSy3g6FCpshmT8iCQfggfBkOEGhliKXaZLwUv6fssDULQoj2NGCNBiQhAHwensynKBo+UBeRROiY5bHHVLqEaoY7ciraEL0xHtxQsOaGD070ITfUWDqw3AC65rfyctoQhh6kyuPY6F4kA68GUKTerlzGfoLaELoeXgjL3Mr1C2P2Q/QhDD0fiYvcyvU8ZApNtCEqP8HWQJxLVgwOu758Z9oQuiEviUvcyvUeZTJPNCEaJNH53wcC+XHmOwRTThEi+uKvMytUJ6yR2dxaUIUICXHTbPr0AgEy0woyRCizDXhNnYuwzExhGijEtUfmPbR7pDZ0jGE6K0W7BiuhI5gc7MfQ4hmZq0/v3shMxK3gjGE0Aldf+gN02NMFMIQQjsGmbhzqhtESBkxApbw6+k5oeFu4Ct9HUMIQ2/mB3MoU5cPQ4ic0GrzfO5E92zhzvR8MkMIe0IrRz5nvjQJjx4yCxhD6M1SkbKhBGrR1WMK0wxh31edU7EmCOR6DZnfhiEcevqiTjLiCLugm4XirmQIu54sFWrFWXX6wLnKXskQwmfCkYi+Fr+0RoUG7owER4jsGI5E2ylywYofdyVHuPVEyNoeYcabu5Ij9NT1mq8uo4w3eyVHiGKkbNrjZUHIOgSM40iOEIXerdEXXhaErMsDOmCYwJslLOCE7nKy6J/Jm+SNSykcIXRCS/0/zAn5gw4w8OayDhwhPBcueL1tCNnsCJrc2TP0HCGyY0hOaAtC2jCSCwXetBFDILRyQpsTsofGcH9jzvPKEV6CMDCRWu8ZE6oRN87uCxjPF66XBUcIG9MlgtfbmDDRelX/1hCFpezBVpYQhd5EJxh7Qn6csGsOeziZJYRbasEJbU7IjhPW+9iZjyU0rEfaEfLjNK/ZsoRwhaVrypaE7Dhh3Z2NQFhCGye0MSE/TnPbMkuIvB2SE9qckE00wx+c9b+whKZlAitC/sEwL6SwhLDUIwSm5oTsOGGzPbYYxhLCcp0QmJoTslsLdNiIL2iyhANAePzp5GoI2XGiTzGH7PLMEg4BoWTHMJ9p2K0FMmKEbIjFEgZolDFP+JqaZVsjrvYQBChtFLGD4QkN7Su5rqerXlzyPqowTS64XIuNwYcnRE++7IQeLO/CNIyK3UsVxunT/UTYj10ikxY/K/CE9k7oyfmmFaPOR0kUR2fTG2GnksvQAS0TVuKEXl+3H+KY/aJBFKYvt2/CLuW3DB3QMiFK30mh99+Us21CvJbZi5durjrg5v0SDLz5s2Y8oaEll1Zn+V19eGBVFIe79nXx/vUWpmWesGondHcx3iRpRhnF8dntrMCj+UEWPzdP6MIJPbiZrpLXoo/mBxk6oHPxhPDlNnNCd0vT5YIZB37a4wlhZoSfoKsXWrqErBFPCJ3QQuhduWD4wT8ZPGGAWu/RR8XcCB2mE4JkgRC13jvU97GSLmohJriyBUJoOBG6Y1QsWEURzg4IhMgJrepzQqNWftL5D4HwhJzQpg7oXALhCTmhTR3QuQRCGHrX54S2afIgENpkvSuWTY88gfCEnNA2fQ4FQuyEXhjFmKU1XKCvbEm9KgVC+BFylba2c9fHg/rzbQum7qRSn0CIWu/ljFE6upu5W/nXs7tRWiCdRTbb+yWBcF0oUZZk2/X90gXkerkP+RTP37+08PcFwj7KmP75A3FvfzWoMkztDq72vbhoXjkZCe+KQDgs44RWYbr/VlWQM/m2T2H/9Y9/fCVMeQJht6QTWoXhbmof5yymO9xe/ugvPwjPj0Bo4ITO7mS0/Wn+uHZ/bqNSd+8/8d5pQIhCb+bPperH3GTmWc9/qNTsT0opI4nQ2AkdpclrkUz2Bw3eXhMzvBawgkqEKPQWIeNo/7XonRx83Udla1V/EUrfFJEIoRNaVraGrO476KXsds5XxdcFWqwDGhHadz3OZp6ntlA1607aTwYzi0YoNZORCCtpgajCeLelA+Pr7Q4W3wpJLINJhFV9yiGDTG7nf9/J7vw2qQavBfIpEiE6AV9G2TJ38R6ir2cXofHESf3nUk5MIkQ5vLLjiKPH5SAYLB+tJk5K0qQtEQ5RY7rSimJ1pqrGayUHaScuEQboI+QmcnDqLxHrCyIhqoeciOQakUiIst4nIrnjkUhofm6iVsnf7xUJPR1CLCv5G8wiIfoS4olI/o62SIic0CciuQOgSOj1gyPFJXdxFAlR1vtEJGW8AWHH6+c4CqsnlmpFQuhbPQ2FIoNM2IjlQl4sAGG/oAXWp5SSi0MyYbAITz2siUKQhAaEQadcfr1m5bUE5AhBhEEwmZ5Vlm6oVCqMz6a4VIIJ84zY+OTuZH73xpL3vRRhDjk4fyp9wMCZorj3dF60mleQMNd6+aBi75OrimL1UKYiW4Iw+Lfq3KoySVZaUdoqW1UvRxj86xxIUk/Na9LEwBlRmjBT93pqUuWzUl6ZnJYw99sR5lq0z8pWam3wwrO2aXXZlDDT5D4/DuMcL4rjh3sLh4AFYabB1cbtGpKtC5urcrXWagkz9d82UUHXS0nlZ742b9aeK2vCTJfzu0MaVguZhOnhbs71KymjKggz9W+2o+qm12ziHG1vKnLMVUQY5A7CdtKrAFKFvaRdoeuxOsJck/EqtNpRRmG4GlfrH6+WMFPnahMaTq9RHG6uKj8AUDlhkJtHHssvlNmy9/jVbl2g5YIw03D2KByOPVaS480cGY4dEWYa3lwciiQHsq364QKddLaQO8Ign16nL/JCmS17L1O3dnGnhJmGk/GIW0OydWE0nrh2w7smzNW5X+nTazZxru7rODlVB2GmzvPmowcjjzifazoYVhNhkPeReA1z373Kds+vSxfrAq36CDMN59P9aD+d13MQ5Zf+AYuz7uuL/GkpAAAAAElFTkSuQmCC;shadow=1;" vertex="1" parent="sBFlt-I1jG-c467NaXLH-88">
          <mxGeometry x="15.250000000000025" y="130" width="50" height="50" as="geometry" />
        </mxCell>
        <mxCell id="sBFlt-I1jG-c467NaXLH-86" value="" style="shape=image;verticalLabelPosition=bottom;labelBackgroundColor=default;verticalAlign=top;aspect=fixed;imageAspect=0;image=data:image/png,iVBORw0KGgoAAAANSUhEUgAAAOEAAADhCAMAAAAJbSJIAAAA9lBMVEX///8ATOgAZfTr6+sAAAAASOhFc+0AWe739/cASugAXfQAROjx8Ovu7esAPegAZPSNpOqYufl+mOk8Z+hdXV3J1OsAQOd0dHQAWPOJrvmoqKhTU1NYWFja6f4ARuhBfvbNzc24uLgAUusAOeby9/6kpKTl7f0AXvAAVvM8PDxKSkp+fn7b29sAMeYAVerJ1vmZsfTq8f1hh+/b4euou/XP3Pr9/PdniOm0zvttnPc9fPWqxvpReO16l/BTh/aMo/KUlJQuLi5Ih/YpcvXDyuqRqOkAavTX2+uApPhdkfeBq/m7yPcwdfVJd+2mtvS6xepxjemlwfpFKE+TAAAMO0lEQVR4nO2da1viyBaFA57ghGCC0uZodxOnIUM8cwFBGK9gj7ZoS3v7/3/mJGKGKtm7SJFdIfaT9TWPSV6rSFb2XpVoGon++x9YH5NtzJBywpwwJ1y9csKc8Kch/N/nTzP9/mXhxgwJI/yN3wictnBjhsSe5y+M3mz84wujj38u3JghxRwm4QADGzOkpQjf6ZUmJ8wJc8JVKSf8yQm/fvo804d/eAjhxgxJwl1+FUEIN65Uwrn260dGXz5IbMyQ8qennDAnXL1ywpzw/RIKH+PfFeGfv8JaCzd+/fwB0qcvCzfmypUrV65cuXLlypXrp1GrVsqyaq3EhN5fepb1l5d8EB2jkF0ZTnJArZ1pwjYBYU1fNYZAeo2AcOSuGkMgd0RAODRXjSGQOSQgvMg04QUB4YGzagyBnAcCwrNME54REHasVWMIZHUICFvNVWMI1Exu2jStS2xqjKRi9+V0CQi9BilhYz2h2NMxGgS2VPOKlKbGWC8m1DqzN71IQaiVMkbIjKFeogDUepS2LTkh+yTg9kgIn7JFyP4O3ScSwltK20ZAyOzNvCUhJLVtyQnZvTkHJISkto2YcEJCSGrbEhPa7N5ITJumDTI1hj67N2dAQljXCU1NckLW0hh1EsIupW0jHUOjQWFLA9vmZ4mQNW2GTwJIW21LTsiaNopKW6gSoalJTMiZNhpbSmtMaQlpbCltPTExIWfatogID7JKSGTaNG1CeMtPSshZGiLTJiTUTVkVyrKycUIa0yaybfrouiqpTWld2ighjWkLbBtKaG5VZPW39OFPfIaQcx8ORS0xlIfWE92jypqkfpE+/CVHyBzdcEjqUKFMjFC/T4HwlJ2lnGkzqQDxNrBeS4HwiiNkHy3WyQhRY2r4soDyhN0xS8j+s/UrMkK0DWy0DzdUE7ZslrChwrQJbJtRuFFOWC8XEUKSBvBUuG0zt5UTDnY4QubgZKZN0/roDdH5ppzwmBtD7uB9MsJjtNrm9GUvptKEmywhX2k7JiMc4ITXygnvuDFk71sWlWkTtYED26aaEDdtJA3gV6GE8rZNmvA7ZtoKTTpAzUCN6blywhFq2gqEhDZmavSSJKA0ofcDM216kZAQbQMbReWEuGmjqrSFQqttRuNQMWGXu5QqqbSFwm2bKWtMZQlb+ymYNlF6z7pR/IyPmzaS1F6kB9S2uUdbcqruorqDCksC00aR2os0wZukLl2tbX8TOPQzSmhR1RJD4bZNVqJ6aRnymbuoLW3Smbbg554K4Q50yrcsIWdpLELTprXI2sBCQuiUUdNm6DTt0am6ZEsSBIS2D53yno0RrlMSemRNUhHhGCp/jjFbqtfIqqWhyNJ7IsIf0CmXUVtKadoIF12ICMG1E5yl4UwbxVKLmcjSewJC/ztwYNy0EaX2IpGl90SEJ8CBUzJthOk9AWH5DjhwSqZNaNvoCCHTdoZX2ihNm6Z10hhDyLQdoIRkDeCpBin8DuVMm2FS2lJC2yYaQ+iUcdNmUNpSwkUXOKFtQ0FD3LSRLLVgRGVMBYRjyGdeobVEuvboVFTLSgSEYL+ziJq2MTHhPW5q5JaXt21E/g/gsF0bqyW698SEeHrPqEmptIfoFLI0dR9tAB8RE26h9URdrg0sV00c8A1g5rjEpk1UbZNsA8sRdlBCYtMmyrY5jwoJz3BbSmvaRIsunIlU+0mOUNAApjVtwQ8CbSFKtoHlCG/TqSWG6lK1geUIv+MNYMo61Iuo2sByhCPMtJE2gKfC84lybWA5wjRSe5HQZSWS6T0pQg9N7elUi0lmomoDSxEKUnu0tcRQeBtYLr0nRdhKz7QJmqSGIWXbpAjrfKWNbQBTmzZRes+Rsm1ShB2OkDsoXWovEp7es6TSe1KEAtP2TE6I1xOdM5mLqRThJp5po0vtRaKybVKEXGrP5iwNtWmjs21ShILUHrlp0zx0SYL5pIwQryW6xJW2kBCttrm9ykZ8SREKGsD0hPiSBL22LaE6JuiYuGmjWh/L6hytRemWhPQdUPs2cEjPRytt5woIj0iapFi91N6DCPH2KL1po1orixGCDeA63h6lTO1Fonn3HkoIVUs7OGFVASFu2ygIwQawwLTRLbWYiaYNjBJCDeDNdFJ7kWjSeygh9HrAXdS0ES61mKmOmhoKwh2o/ImaNsOkeakJr1YBJTSgJpMkIXTKlyhhg7YBPFV3HSM02tBrqGFEhND2oVP+kappE9q2eWNauYFvLhgh2AC2UzVtompbe/7hYuMGntQY4RU0KGimTUGlLRRuTC2A8BB+FsEIF5s2ham9SHh6rwk9CMKdf4TQh04Zr7QRp/YiiRZdzNeiKvCkxgghWyowbfS1xFB4GxhaK1uBJzVCWIZeD3iMN4BVmDZhtW0CEMJPWxih3FIL8gbwVHh6D1oNXIGzDRjhYtPGHZC6ATwVnt4zqwDhNfgPwQgzYNoC2+bKVNs24GwDRrg4tccSuvS1xFAemk90RwDhowSh7UODcoqaNl0JoKah+US9BBBuS/wObXtxao8z3ooI0fSe4UO2DRxyhBCK4fHrY1OwpYL0ntGeA1xbOwSNKUII5RJbxVRriaHQeqLRANrAlQY05DChD9lSQWpPjWkTtYF1oElauXcdc26mzhPadrnsQ5YmxdReJEF6D2qSVg4fhzXd4e8xbwhDur27Dvg8i9tS8tReJPyVyXB6L3gOXrt5OGpb5my+soR+eefq5BitRzzjlkaNaROm99CXuGxUKmvb1ZIVTdhXwmBq7uxcPgutyS7eAFZj2oKfPt4kBWwbT/m4VTMcV38hDKZmcW93YT3wBG8AqzFtwjbwcFGTNKC86R8VHadRLp/e4lOTkSC1p6QOFQpP7/VitIFfJuz18DluIXCEvrbFUgUosG1x03sbEu9UwFN7FJ8igzXG64nxANck+viC1J4q0yaothl+7FecxCbspm/aZG1bQsIW+iY6ZaZNZNvM2Om92ISprY9lhaf3rNjpvdiEx2mm9iIJ3r0Xe9FFbMIz1NKQfIoMFsW792ITClJ7qkyb0LZdVzbijWJsQkFqT5VpCy7g6Bga/tPjYaUSAzIeYff4lrsd8i9IVlNpezku+ma64GrqNErX3yoLKWMQDjZH4zev8eYqbQV1hOIvXRh6QNnrH24IIRcQds9OigEdh/fGtOm2MuMd40sXhutYta1vggkrIPQ6u6f7Zf8tXYqmTdQkZf/HptUePWwjQ4kR1p+/j3fKEF2olExb/C9dBEPpBteeNWAoIULv+OTKhwfvVcpTe5Ek0nvhr9KqVbffUs4RDjb39oFf3htCZs9KUnuRqpLpvXDCHvVv2AnLEbbOTgRTEyNUZ9qWSu8FE1avbc0m7L+EXuduzxZOTUbsHhU1gKda7gNl4YQt3D/cVELfMyWsP1/aC6cmQqjQtCX5QJmhO832cHK48XfoV8bITQGTmq9aQKqjTdJYlKajn9+N7Fi/PE5ce1RXZ0uF6b2YkO5+/KnJELK7IPoUGSwPTe/FRlzqSzr8S00UmjaCV5wsSZiWaSP4BNtyhCmk9iKNVkOo6KsWkBK/e28pQj8100aw6EKa0A7wuMubUtNGsOhCitD2243C2xuUUtNG8Am2+IT2ejB4wM1JWQN4qsRfzo1HGAxeQAffe5UstZiprp7Q9tfnpyZLqNK0ieqJNITY1GQJlVoaTVNIGE7NRXjhx9bUAmqJrTe2Om/x4L3uQFVqLxLaBk5AaK8H15W4/zrFtlTTSs35JFciwgXXlTd/rZtNlbXEFw2qJYMNOSUhDK4r2D0BkG5ahVJV7b3iVa3JsGg5yz3u/0sI+hX8z1zHKg4nKlasIfLqDyPHWmLCTgllp6bljB7qiu8SkDoXRVN2KAPC0ErHnpvB4JnFC5XVtQWq93u+Y0pRxr5qhnSO30tzasLyBtVz0yJZQsvhBfs8PxisYGqC6k6GheaS1x6ITneajeEkK3SR6g/nBSD2LE9nOo3z/sqnJiyvc1uTvvZweK5lli7gUHRm1OofNZrLOIKXuv/T6q8rsTQ4qFlSE/al2Vg6UPvkRyxv8hT3Zvlyy8vedSWO6g+9wqIJG1jpdq//rgaPl9e5GKO3kWDwmrWLzNzylle332vM+Z5waraP3uXUhDU4uC/MnrkCK90I/MqqT4pa4TNXOGHDqTnsqOwBrlKtfq/9dJYu3f8BpmXnB2xZ8IQAAAAASUVORK5CYII=;shadow=1;" vertex="1" parent="sBFlt-I1jG-c467NaXLH-88">
          <mxGeometry x="65.25000000000003" y="116.5" width="63.5" height="63.5" as="geometry" />
        </mxCell>
        <mxCell id="sBFlt-I1jG-c467NaXLH-87" value="" style="shape=image;verticalLabelPosition=bottom;labelBackgroundColor=default;verticalAlign=top;aspect=fixed;imageAspect=0;image=data:image/png,iVBORw0KGgoAAAANSUhEUgAAAOEAAADhCAMAAAAJbSJIAAAAk1BMVEX/3wAAAAD/5QD/4wB6awCRfwD/4QD/5wBqXAD/6QD52gD93QCvmQC/pwD21wDnygBgVADWuwCYhQBPRQAXFABDOwDfwwA+NgCCcgCgjADy0wCslgC1ngBlWABaTwDHrgAQDgAgHAAqJABQRgBJQADFrAAdGQA2LwArJgCSgAAlIADYvQCJeADqzQAwKgCBcQBxYwCIqTYGAAAHJ0lEQVR4nO2c2XLiOhBALYlIsVkNYTMmhiQkYcvw/193bZI7A7hlSV6QUtXnaaogjI+1t1ryPARBEARBEARBEARBEARBEARBEARBEARBEARBEARBEARBEARBEARBEARBEARBEARBEARBEARBEARBEARBEARBEARBEEQK54xSyr7J/sW57UfKQwUA0/lLTmmvHw9nz9Pd0+r9ZTz4M4wnEUs1m35mI+h8+Zhj2VEqciomi+Wa5Hjehpy65Cha+Yck5IEW/xUXXucN+sMzn8Oj745jGUNOe0Op3jenvjPlWMKQeXOFX8ahp6gH98LcUEzGGoKE7BL/fhoFmBpysdDyO/+KcKGmGhpyBn5fwiBwQNHMkPNHA0FCXnv2FY0MOTMTJGRsf5JjZEgPhoJpRbU+wzExpLGxICEz24OGgSE/lhAkJLasaGAonksZkshuPdU3pN1yguRN3F/rAm1D7k1LGpKO1Xqqbcg2ZQUJOdqsp9qGtGQrTJlZndroGhZ1pNPl7HAayCrxdG93sahrSGUrpvW8L4TIYiH9GFoUDz2tkEhz6Br6kiV9q/d3qcspz00J3uyvhDUNeRsWfLiqgZxG12vHBbVcgJ62IQtBwcHtIpd5F2W9jOyOhN/oGsLDfT9XBXnw8vPZU9d6BT2jaUjB0NMJKCO2//nsl8VpxAn6WhdqZecwxy50Jp6oa7iEvraHDDkfk0PgSAF6+obgjGYClhPbh260wG+qGcJjAbM/RFxQqZaGTqlIqNTTDN1pbXJ0R4sZ9LWR/UiaGl1DONKd/IJC1J3TwOvfdxeC2gp0DfegIRnZXhup0V1bMNiQTCOXxj6IqutDQjpuDX85Kq/x05oaOrAKlKMdp+lLDQl5Dn3r2xNS9GNtHwWKZJQwV9ujvmGnyJCQz07PiS3fHPox796qWJE8HSa+gw3SYN9ClWGSMgh95yqrviEP3tWK5DP2HHM02F3T3Hx6n0dONUiTPWB/oKVIVluXOh0TQx7s9BQJ2badqatGmQpsomtIyMKVOblZPg1N9BWniRtV1TAnShgokpMTMUXTvDYKb2BI2DhQjMa5iXTyZaA4sx/JMc++ZIFJ6tcost3hlMig5UwxCb/iZfJ7Mob+QSOTtAXLiiUz2f2uQWuUBP/vRDnDtBiDhWo19Zed1bZY1tDjNNjqKlrNMi1tmKV8t+eaE9WDxQ39CoZZObbBHJo8FnepKhmec2hCcOPthg97sbiKhtnoKKKtutOxl59Y2dA7N8iO6pTJR9tWIdZhmFVWL1EEADa2WmI9hlllpfvC+eqjrWpal2EK8/tF5WjrcEmNhlmDDOWDB5hedAdqNUzLkUv3qGaWRv2aDdNilMU5dpYO69VtmM7JJRvixNLktH5DT0hi43COWOM0YOj5r6BhYqerMTdUVzYGN0VLnamxIQuUOTSSpPCGj3jJngpOWNtKT8n6yUdL2e1zMIyzaNKQUVmsBE6rlKTkcXHMlkrKXC+4YjSY58fp/oNI6pYPJiDMwfOHNHg4f7pS1dN7G9LoD8mOjsMfgks7qMkwFq9/Pl4q1rMMnJ+Cr60GGI2fzv8BWE8laTL5jp37+4sxYFjYFHkbfm2N9KVcTP6fC4+gF695joLT3nXF6xQp3nO0oL2L09fQi4ezm28PttJ2Lr00LthV8kfgjzYQjUor6Prqv9DN5ZpedSXpZBrojubSbWwhOfJdey4qF/2bd/l01EvfJo+XpS0k69pHD+45pIuLutcWNMhfD7CaiOvCkdzicdnrwRneZxKWb9pMemhfPVEwgrEumN8Ts8vjgrLV6mWLEQXRl9fEE5eSPJ1ZSKOn9XalfCKLmIy6gS8opcKPYlkEcH3ZYorvGZgOQ+/8e98/2S0I1NR7LL/wAou31nB4eCxIprxqhsp8ttW4Ne/EcWd+KtxwG9Tbk/JIe+sL4Hq8r3AQ/5K6R0Ohc5WTjJs+UnJ+1IyvumPenGsnaOXIzZArva4f6t+3qPDi8yOzbsqenCb2noR8HCsGWALwtt71XnKa2D8s+1Rf0OSKHT8rCTazB8yKzg/IgRfwrNztOz+MpUGUakhDs0UcJLNHFpUvxV1jmzKy0GwBr9Iuj0VwFFTNqt9cGNFYcVrwtlnb5DK6f7w3KGiaK5kKFj0Mly38Chk3nC5EI4Mp10CVuEyPxgPjofEkDOZp3yK3VT8MZyb5bOnQk9zhagVO91rF+KV3TQBtG0zh5ndKg2ZC/eLfF3q3I2dvjHW0Bo7VNrjfiQTKN4UJoW+dtsHL5pSGrbXC7zUO7prjzRntzyXj2fRhb3x5MxO98CCv/MtFn97/RElq0dsMb4py9BBHvNQF3Ok783rJ/PRyI/fRWuwDa6ct06cSPj2Gyabb3SThkfqiyi3q/Px7fjDJfi9OfzLse/75J+t86DIP9nNJfF0Pwv/+oJN3ziMIgiAIgiAIgiDu8x9ZwWFgA4NzaQAAAABJRU5ErkJggg==;shadow=1;" vertex="1" parent="sBFlt-I1jG-c467NaXLH-88">
          <mxGeometry x="128.75000000000003" y="130" width="47" height="47" as="geometry" />
        </mxCell>
        <mxCell id="sBFlt-I1jG-c467NaXLH-125" style="edgeStyle=orthogonalEdgeStyle;rounded=0;orthogonalLoop=1;jettySize=auto;html=1;entryX=0;entryY=0.5;entryDx=0;entryDy=0;" edge="1" parent="1" source="sBFlt-I1jG-c467NaXLH-92" target="sBFlt-I1jG-c467NaXLH-106">
          <mxGeometry relative="1" as="geometry" />
        </mxCell>
        <mxCell id="sBFlt-I1jG-c467NaXLH-126" style="edgeStyle=orthogonalEdgeStyle;rounded=0;orthogonalLoop=1;jettySize=auto;html=1;" edge="1" parent="1" source="sBFlt-I1jG-c467NaXLH-92" target="sBFlt-I1jG-c467NaXLH-109">
          <mxGeometry relative="1" as="geometry" />
        </mxCell>
        <mxCell id="sBFlt-I1jG-c467NaXLH-127" style="edgeStyle=orthogonalEdgeStyle;rounded=0;orthogonalLoop=1;jettySize=auto;html=1;entryX=0;entryY=0.5;entryDx=0;entryDy=0;" edge="1" parent="1" source="sBFlt-I1jG-c467NaXLH-92" target="sBFlt-I1jG-c467NaXLH-110">
          <mxGeometry relative="1" as="geometry" />
        </mxCell>
        <mxCell id="sBFlt-I1jG-c467NaXLH-128" style="edgeStyle=orthogonalEdgeStyle;rounded=0;orthogonalLoop=1;jettySize=auto;html=1;entryX=0;entryY=0.5;entryDx=0;entryDy=0;" edge="1" parent="1" source="sBFlt-I1jG-c467NaXLH-92" target="sBFlt-I1jG-c467NaXLH-111">
          <mxGeometry relative="1" as="geometry" />
        </mxCell>
        <mxCell id="sBFlt-I1jG-c467NaXLH-129" style="edgeStyle=orthogonalEdgeStyle;rounded=0;orthogonalLoop=1;jettySize=auto;html=1;" edge="1" parent="1" source="sBFlt-I1jG-c467NaXLH-92" target="sBFlt-I1jG-c467NaXLH-112">
          <mxGeometry relative="1" as="geometry" />
        </mxCell>
        <mxCell id="sBFlt-I1jG-c467NaXLH-130" style="edgeStyle=orthogonalEdgeStyle;rounded=0;orthogonalLoop=1;jettySize=auto;html=1;entryX=0;entryY=0.5;entryDx=0;entryDy=0;" edge="1" parent="1" source="sBFlt-I1jG-c467NaXLH-92" target="sBFlt-I1jG-c467NaXLH-116">
          <mxGeometry relative="1" as="geometry" />
        </mxCell>
        <mxCell id="sBFlt-I1jG-c467NaXLH-92" value="" style="shape=image;verticalLabelPosition=bottom;labelBackgroundColor=default;verticalAlign=top;aspect=fixed;imageAspect=0;image=data:image/png,iVBORw0KGgoAAAANSUhEUgAAAOEAAADhCAMAAAAJbSJIAAAAxlBMVEX///8UtZoWvcwbwmMWn8wAusoAs5cAnMsbos4AsJMZuJ0Av1j7//+Awd3K7dUtuqEAwFsAvVJw05TZ8ez2/f0Al8iw5sRHynvx+/VXzoUKwF4ew2br+PVLwauO1cfY8+Jix7O45Ns/xdLM7Obe9PY7xNFdzNeC1t+l4ei35+xu0NvY7PWQ3Kxh0Iszxm+e4bZ71p3j9+vD6tB71513zr2n471bz4iu4NaM1cfM7vKq4+mg3M/Q7/Ot1+nO6PJYs9aSy+OLx+FT7d2bAAAE20lEQVR4nO3bbVvaMBgFYCpQkFYEAUVUNjdw6Hyf25yv2///U2vaUkryJC0oexp27i9TxF45S5tD061UAgAAAAAAAAAAAAAAAAAAAAAAAAAAAAAAAAAAAAAA+L+cn3OPYLX8C8/b97lHsUL9y1a5PDi44R7HyjS9QVlo73KPZEWu2uVY+5p7LCtx4ZUTrb0+93DeXXgJzgwGTe4RvbNma1Ce177iHtO7ml2CM97FGtXGjqcGDC7Gy7WpDWoGw4vRW5Pa8OVLMHUxrkdtnLe0CcveOtRGn7wIkzO1/IF7gG/2TX+SRmeq7RfjjXEKw4jfuMf4NvttL6ady7bV94z+bXNqTxPRs3wOZ/p0wsF6NEaIviS9W+5xvUXH2Y41OsG3t+SHm5bNlXjkOjHXPQy+v6JmcbDHPczlHW86CXdb3ErsUJ9vPHvXUifNPRIvkQtq29bPNUN3LuLmXfCaf0BEHOxwD3U5h5vOvM3H4NUb4jy1NeFH15EjHgcvN9UF1dKEHXkKRUTRGd+ViJYm3FamUCw3ojOu5c6wM+ExMYWiM8TP9qXVxsp9N5/Kl3TG5VxEO7drhtQ5mnRG+kO4pXf5SlOkIg6Dn39IVhtbN/jVpkhFFJ2xG0f0rFxkSqXP+il04s44DxdUe2/vTXMYd8ZFy+57Q7INk4QNcZ+x51n9NLjbME6i6Iz+jy73KJc0GouRG1ZTEfGOe5RvcFqtfhJ/Zqw2Q+5xLm1S3dionomvfpoj/uQe6ZLOgoBBxC/i63tzxM/cY11G91MYMIj4IL7N0RmWGW3EAYOIv8QLR+bOsG4tPU3yiYij4BW/YYx4xD3iBU3SAQNhZ5jP04/cY17ImRQw6gxqLyO12txzjzq/ZI1JRTwRP1iXzkitMamIYWcMbe+MrnBK5Es64858LXa4E2Q4qYbIgLk6w3GL3RlfdNnmOsN8K7XNHcJEc3am5eiMAtfiKDvgxli8MaMzCnsr5Wfnm3YGvT+cRHzkjqJxkmMKp53xaI54zJ2FlLXKJBEn4t132dtvRZNjlZlGzNMZxbuVyrPKJBFt7Ixu/nyCmKGuaQ6L1xnqB+3MSbSrM/KuMnHASfRbGdtvReqMh4UCRq0vWNMZT4sFjM7RkCWdseAqMz1HQ3Zsv40XSzie++WMzijE/zKRN2SypnA099s5Htlwk7fUpDyKifT75kc2RegMc8Cnki9RDlD4RzamhMqEkTK239g7w5AweuaULeORDXdnGBJGq+bzluyrfAxzZzj/PNM8fcJquGv20qvJ6srFaLqVYt/r1yaMbgO7tYqi9iofxPTIxuX+fKrdG41WmS0iYaX3Wz6KYfuNfRtckzDacaLnMIj4Ih9GfyvFvkWsm8Pptfa7R0WsKcPWdgb73b7mEcXss1mdmsVaXTmQ5pEN/z9EIRNWT2dv+EpP4pZyJLozitn40Z7oFLnYVHrPyqHIzmAvfCph9Lg34dephJWeUvxkZ7j/LIkOlVBaRp7J87RSUYqf6Az2vqcSBjcUklfyPFWLn7jPYO97IiFxQ/FMJqzUlElUn9iw972akLqhoNea2h/ljepyyt73SsLqmHgPfZb2Rsob1YDsfa/OIfV3Xiepl2HHbUgc9r4HAAAAAAAAAAAAAAAAAAAAAAAAAAAAAAAAAAAAAABYxl9kwli72DUK1AAAAABJRU5ErkJggg==;shadow=1;" vertex="1" parent="1">
          <mxGeometry x="760" y="206.5" width="100" height="100" as="geometry" />
        </mxCell>
        <mxCell id="sBFlt-I1jG-c467NaXLH-137" style="edgeStyle=orthogonalEdgeStyle;rounded=0;orthogonalLoop=1;jettySize=auto;html=1;exitX=1;exitY=0.5;exitDx=0;exitDy=0;entryX=0;entryY=0.5;entryDx=0;entryDy=0;" edge="1" parent="1" source="sBFlt-I1jG-c467NaXLH-94" target="sBFlt-I1jG-c467NaXLH-132">
          <mxGeometry relative="1" as="geometry" />
        </mxCell>
        <mxCell id="sBFlt-I1jG-c467NaXLH-94" value="Backend&amp;nbsp;" style="swimlane;whiteSpace=wrap;html=1;fillColor=#d5e8d4;gradientColor=#97d077;strokeColor=#82b366;shadow=1;" vertex="1" parent="1">
          <mxGeometry x="948" y="81" width="190" height="350" as="geometry" />
        </mxCell>
        <mxCell id="sBFlt-I1jG-c467NaXLH-101" value="" style="shape=image;verticalLabelPosition=bottom;labelBackgroundColor=default;verticalAlign=top;aspect=fixed;imageAspect=0;image=data:image/png,iVBORw0KGgoAAAANSUhEUgAAAR8AAACvCAMAAADzNCq+AAAA/1BMVEX///8zMzNon2M+hj0uLi4qKiprv0ddXV1yqWJxqGF1rWR2rmN3sGNtpV94sWJ4s2Jhm1wjIyN4tV9bmFV5eXlmn1t2t1t0uFdjY2OqqqpxulPw9fCyy7BVlE6rx6n4+vdvvE9IjEW/1L4MDAwfHx8AAAAYGBiCgoIxgTBXnkudnZ0LCwtYoknw8PBPT09WmU2/v79ubm49PT3MzMzZ2dl9q3mWlpbd6Nyzs7NGRkaXu5SIsYTS4dHm5ubU1NRYoEpZqEdzpW6Hs4GUuZGIvX6Crn+gxJZopVW20q7P4smgypHo8+WHw3C73bBeuzKk1JMtgCdHkD9UqECJwnxClzQEeaH1AAANUUlEQVR4nO2di1bbxhaGZcsmJD00chQnAUsWvmAgBMzNKNimwaWU5qRpoT3v/yxHmtGMNVdtySI2SP/q6iLYGo8/7fnntkcYxtPW1enR2bLrsMp6W68NXpwvuxarq7f1SqXWe3u47HqsqkI+lUq9d7HsiqyoMJ9KpdH/vOyqrKQIn0qlf1oatag5n0pp1BLF+JRGLRHDpzRqQRyf0KiPl12nVZLAp1LZ+WXZlVohSfjUT5ZdqRWShE/txbIrtUIq+ehV8tGr5KNXyUevko9eJR+9Sj56lXz0KvnoVfLRq+SjV8lHr5KPXiUfvUo+epV89Cr56FXy0avko1fJR6+Sj14lH71KPnqVfPQq+ei1XD7nm5+9H/ZhmbQwnwUShg5Peo3+YDN7ATF5v99ttHMpyTDOdndpKt2CfC4OeqdZ82Eueuizc8nr++Pup/VXtttdvCTj6sWgXh+8uML/WojP534DpeVdZajGcb1BPm/wIUsBMX19fffTq/X1ddud+YuVZBi7BzVUqYNd1PIX4PPLZT+6ICorhc6PBvFPPFgka+3bv+9+/g/i07Ts4aS1QFHGZp/yqKOWn5lPYB61ClsWWMy1SNnTi73/vn/zOuKzblkBoew2dHbaj1cqaPlXAh0gn8g84mWBq/GxJ96UrDb0fevdm9eUz4ZlNZtuM5sNXX0YcHet1h+IFYXw+dxoCFdBXeS4JlyLC+ilt6Gv77fexfi8fNkMATUz2dAFH9MqJfKhxsN/QYCLsMaToYCYvv25/f4dyycIoBBQc3iT0hEldzwjH9E8qBqNBBc5fKu/SYkFxOT9vba1xfOJAigk5IBLUt7xLHx442HVv9Sl4EuNhy8AmD37fW1tW+SzQQIotKEpkI7mjqflozKP+cXqFPzEa6MCTgBD8q/ba9vbUj5NCqg5HH2D4NHf8TR8dOZBVe99zHxtVECSDX37868Qj5RPGEAEUHM4TrSh+Th1UT5J5kHVqAlTDvC1uAC9Df3919qams9GjE+iDcHvWiKfjwN4GPJTjjTXImls6HtIR8enyQBqbqhtKN1dI5LyOa6kCkNmypHyWlyAwoa+bmM8Gj5MCwtD6FfFlAPQXUirJvIJ5rRpQdMpx9VR6mtxARIbCo1nLZFPkwW0EdiQ7I6DuguJBD5eNKdNKTxjON/JRAcVcMRVxKF00vBpBr+54xvZVQbjicTzOcsWhqiNGMaHzHgCG2N9fro3hPERAW3cs23sKvtd4/kc7izwBTeN7BcH/Rg7UrjpuNtwPgyg5h7bj+1mvOWhOD6fMzbTqKjsFwt8Jq7rwvjwgDbMPXbVY5Go5vhsLsCncpQ3n2sYH66FuYXh46bgMwdkPk0+tX5voCud43PrxgIogQ8DyE3Jp651pzR8an394EbLp3955h3qhtZ8/AxjAZTEx44BMlPxqfUutOPqFHwGL87PhVXJuDR8yCRLM8jn+PyK+HwC8rEpHzcNH7wOql3Gg/JpVND4hFvVZqTkEx8dKysj8BkOaQDB+FhR+ID50GVw9bweyKc+oLXfVLYRBR9+dqUY60v4BIT2gXxIBHXgfJh9GNW6EIgPuw6mnIHI+dQqwuz8QhZCUj5DPEgE87FNKB9+H0+xrgjh0z/i1lGDGaysqBMpn75kav5R8jE8n30MaB/Gx8UtrAPl0xD3gX+5lIQQgA/dzWtNbLLZdCy6UG3nXManviviMQwJXwUfdwvGBwHC4QPgU5M+FuFS8sZEPvQdbdeq2mSz6YQvqn8aNCMJn4Z0s1VypxR8hkMon6CJdaB85HdNBjKZD0bdtaxqKPcGTY75R8FgrzvNk89+ROgaxicIINeEtq/c+YztaiTLFfhQr8uTz5d9QgjIx7U7oZbExyJ8qrbH8ZkvQOfOBxG6hvHpuB2s1eITDRzz5vPbpwjQ/rCj3P9i46dDxK3/LJMPuwGWL58vESHz4any4TdQ8+aDCAWOAvMfysdcET4DfgM+Vz4Y0Jf9wHAfVp7PzZxPJ+Ij2fjMk8/1J0wI9djXq87HG9uYkFVFuyfHOzuSjfO8+QR6wEO+VedjGP4oGAJZNvnoQ9mO5yPwwXiCAALxMX88n0qFvDi13IQUiVz5XF/PwycIIBgf0wXxqdQlidyyLw/gU5snUyal0+bL51PwH8FjfgLyCUeJAD6VAb8oIV/5g8QPPKc75/i5vjbn2noP4mMGP0D4cGMTMZ8VzgdNsH44n3+u4+Fjmvuw+AkCCMaHGdteqJIOoOvP9T4kKXwhPuwbER8zLmD8BAHUgfGhyV3o6MRifGA53Tny+Tfg88DweQDyMeF8kA1p81lT7O8AbChnPiard+9hfDop+ATfqq99Oc3+aaIN5crnnweOjwnkY6bhk6CU+8sNvQ3lGz88HvMLkA/Qnx+BT4INgflIChb4CHiCFgbjk7y+8Xh8tDYk4bMjffOu+Dkcn+//k/DZh/G5ZxPsThbJj2I3Os4giXpqGxL41Hak+eOGIfYZHB9vb08WQBA+e1X2s4572fn0uHnIESjBRXXC7ZJ7nzCIn0vYpuYboje5F/kMk/ns3Qtn5i6yJiDWxEUKYPqq3IZYPpLU+vj35z5JNCrfEgkl8rm/lUwSM6QsV1SHbVUzEeFiiQ3F+SiOZihrLTPyrsk3suEbHR9zz1YcljtLn7Ye33hgy9LksMQJiQdtL2MvQv66RvyT5B1d+54j9LOGj2lqDluq806kimWsiAIesBNsiPLRGI+q1nI+hnfLNrKOev/rXpY5HyvpLTzzPfH2XhyAaA/Y4UHER288XK2JDSn4BDZkM4TuFHweRomHvcEHeAC3F3jOboe5CPFJNh5WkeEp+QQ2xPT1r2V8HizQKV3QOQzg7QWc0+T7v0uo8bBCNqThYxjjmA3diXzcIfiUd+I5nhS397P+uJ3Y/33og42H1Wa/saO9aa3RvJEJfB70xsNKfw4MduKTSndcs38pDIEOL7I+v8T7mHSYeeqSEBqyfJRHvlTS2JCw45kkpQ016j/8b9A5xIbifIaaI4NKKfJV05w4p5LS1o4OHk9j3MhcyqepNp7W1NdsRkkaRuY/9yWYfjBBXdKfVmvNEKGXrzCf4e8qBP7MDTp9zXYd3zBSGg8rxvSzPDsjP007QSPrID53SuNpTXC623y7VyKmfwY/qkCumOkPFitpcYU2tLG+fvdSaTxhJinJBqxq7IlOE3L4g57n+ORtmqHxY8m7ud+7u/tD9TLJJI0SKmzZhJ4I2VAduLuXoOPKoL8cWxbUcrpq48FNy5753YiQzoauTg4OcrOLs7MVf0BfEFoublZW2K95Y2JDeTzL7RmojSPGcskSYmsUEZplGCU9N02J8cQf2zatSn5ZRPmqUHH4oCqivDHu02VWQ3IDsSkVUvMYkfYgJLbsxR8p+RRFPUY91JF6UzFE+yjdUDkIMdIAi2VDgfEkT7WQWszYiGrabj9jW3IAY2Sq2Nia/MqbOX6rW32mtuQT44E9vC5+yi/6RbXld7stYwa8/mnJdyHGwyqa21sz9C+na0zGzoPhjR6pikuVBTMeVtHakIWuCrBMfMP1jNtHqeByNQ2/qA0xHlb+LARrhT/OwpM34cD65hl2+07wNe1M887wtBY6pjXxjMnUeECgnp0c8i1TqxteGUbMtB3y6bT8NDtoT0USPi3fj3XV0/YksCfbmk3aU+Z9lI8xQetEPpdx9jwk8ml1bJtM0712+EyOaBXasty4w8z5GO2Z40xuV33dL5MkfMIjapjP1J6feMSM3Hk/F+MT2PX0GXpzKB2fKZlLIEUHZ+nMi+HzbKXh4+Exjj0atx2nPR7hYHKJNxWeT/hSEC/0xcCMQl5klFx4PiM6QibCg8mISeH5IBhspzQJ3k1WNgrPxxX5TOd9W8kHTbC4Za/RaDQr4wfzmSB/vu0qGBSez5RsLAc9vCMmShWej3E7z3CxwinYxIkvoZZ8jAl9IFiVhNKYEin5BE1sZNOZBZmBEccu+aB/ddsjCz9ZMyLklv1XjA+S1/K77RuaTIbfXvLh1erOYmOiovNxxuOxsKuB5mQYXtH5oAVD/u0hFGtMfywyn9vQavg945IP5dMOUUy4t4ePmIvWPIrOx7erglF37XlQFZ2PMUKdVdUhM69W9xaNp6MFxMLzadH5aTDwwf9H48Ny/TBqVj47tYholevz1Ha8G9fi6NyW89P4+LnlzKKn9qMVjnGsvy/5YHn+tOu0206X2yItBh804GM6cfX8i1FrlDnz4ykJj3KsWAYQjA9OsXuOGT+c8CKqPaLO4gP4RCma2RKrnpY8kr5KcuzasT1AuWiKbzGyxOfJ4SGh+BRCqtZNNG60ChA9SPRwgT26wdFkq99McnsLddKJHE6JBsxq+ynsERUnlipmqbqlIh9x8tpRpqFl84s+5B3RbKOwR+S6k+C7z8aK2CiPWOpUHtFl5LcZDMpzu8WUf2PHT6yUjwhg1HJtvLIaxQo1nud4fiCL6Pwh9BrAud3iKXoqiWW3yUOA0hyfK4Do4wDI1GzZFVo5kUZWBZ7bLZ7wIo8VWxoqxcqZVauTFTOe/wPGHlr2L7nnEwAAAABJRU5ErkJggg==;shadow=1;" vertex="1" parent="sBFlt-I1jG-c467NaXLH-94">
          <mxGeometry x="62.289999999999964" y="28" width="66.42" height="40.5" as="geometry" />
        </mxCell>
        <UserObject label="Validación de Órdenes" placeholders="1" name="Variable" id="sBFlt-I1jG-c467NaXLH-109">
          <mxCell style="text;html=1;strokeColor=none;fillColor=none;align=center;verticalAlign=middle;whiteSpace=wrap;overflow=hidden;shadow=1;" vertex="1" parent="sBFlt-I1jG-c467NaXLH-94">
            <mxGeometry x="34" y="94.5" width="135" height="51.5" as="geometry" />
          </mxCell>
        </UserObject>
        <UserObject label="Gestión de Inventario" placeholders="1" name="Variable" id="sBFlt-I1jG-c467NaXLH-110">
          <mxCell style="text;html=1;strokeColor=none;fillColor=none;align=center;verticalAlign=middle;whiteSpace=wrap;overflow=hidden;shadow=1;" vertex="1" parent="sBFlt-I1jG-c467NaXLH-94">
            <mxGeometry x="34.5" y="142" width="128" height="20" as="geometry" />
          </mxCell>
        </UserObject>
        <UserObject label="Asignación de Tareas de Picking" placeholders="1" name="Variable" id="sBFlt-I1jG-c467NaXLH-111">
          <mxCell style="text;html=1;strokeColor=none;fillColor=none;align=center;verticalAlign=middle;whiteSpace=wrap;overflow=hidden;shadow=1;" vertex="1" parent="sBFlt-I1jG-c467NaXLH-94">
            <mxGeometry x="35" y="169.5" width="105" height="42.5" as="geometry" />
          </mxCell>
        </UserObject>
        <mxCell id="sBFlt-I1jG-c467NaXLH-112" value="Autorización y Confirmación de Entregas" style="text;html=1;align=center;verticalAlign=middle;whiteSpace=wrap;rounded=0;shadow=1;" vertex="1" parent="sBFlt-I1jG-c467NaXLH-94">
          <mxGeometry x="35" y="225.5" width="120" height="30" as="geometry" />
        </mxCell>
        <mxCell id="sBFlt-I1jG-c467NaXLH-116" value="&amp;nbsp; Notificaciones" style="text;html=1;align=center;verticalAlign=middle;whiteSpace=wrap;rounded=0;shadow=1;" vertex="1" parent="sBFlt-I1jG-c467NaXLH-94">
          <mxGeometry x="35" y="273" width="95" height="30" as="geometry" />
        </mxCell>
        <UserObject label="Gestión de Órdenes" placeholders="1" name="Variable" id="sBFlt-I1jG-c467NaXLH-106">
          <mxCell style="text;html=1;strokeColor=none;fillColor=none;align=center;verticalAlign=middle;whiteSpace=wrap;overflow=hidden;shadow=1;" vertex="1" parent="1">
            <mxGeometry x="983.25" y="142.5" width="124.5" height="53.5" as="geometry" />
          </mxCell>
        </UserObject>
        <mxCell id="sBFlt-I1jG-c467NaXLH-117" value="&lt;strong&gt;Windows Server 2022&lt;/strong&gt;&amp;nbsp;" style="text;strokeColor=#666666;fillColor=#f5f5f5;html=1;fontSize=24;fontStyle=1;verticalAlign=middle;align=center;gradientColor=#b3b3b3;shadow=1;" vertex="1" parent="1">
          <mxGeometry x="411" y="66" width="278" height="40" as="geometry" />
        </mxCell>
        <mxCell id="sBFlt-I1jG-c467NaXLH-132" value="Base De Datos" style="swimlane;whiteSpace=wrap;html=1;fillColor=#dae8fc;gradientColor=#7ea6e0;strokeColor=#6c8ebf;shadow=1;" vertex="1" parent="1">
          <mxGeometry x="1220" y="81" width="191" height="193.5" as="geometry">
            <mxRectangle x="1240" y="160" width="120" height="30" as="alternateBounds" />
          </mxGeometry>
        </mxCell>
        <mxCell id="sBFlt-I1jG-c467NaXLH-138" value="" style="shape=image;verticalLabelPosition=bottom;labelBackgroundColor=default;verticalAlign=top;aspect=fixed;imageAspect=0;image=data:image/jpeg,/9j/4AAQSkZJRgABAQAAAQABAAD/2wCEAAkGBxISEBMSExIWFhUVFxUWFxgWFxUVGBYWFRYXFxYXGBgYHCggHh0lHRcWITEiJSkrLi4uFx81ODMtNygtLisBCgoKDg0OGxAQGzgmHyU3NS8uLS0tLS0tLS0tLy0rLS0tLSs3Ny0tLS0tKy0tLy0tKy8tLS8rLS0tLS0tNS0tLf/AABEIAO0A1QMBIgACEQEDEQH/xAAcAAACAwEBAQEAAAAAAAAAAAAABgMEBQcCAQj/xABQEAABAwICBAgIDAQDBQkAAAABAAIDBBEFIQYHEjETQVFhcYGRsSIyQnOCocHRFCMzNDVSYnKSorLDQ1PC4RWT8CQlY9LiFheDlKOztMTx/8QAGQEAAwEBAQAAAAAAAAAAAAAAAAMEAgUB/8QALREAAgIABQMDBAEFAQAAAAAAAAECAwQREiExMkFREyIzFGFxkdEjQoGh8bH/2gAMAwEAAhEDEQA/AO4oQhAAhCCUACEn4/rBpoLsi+PkH1DZgPO//lB6khYlpdiFWS1ryxv1YbsHW++12m3Mqa8LOe/CEzvhH7nXMTx2mp/lp2MP1SbuPQweEeoJWxDWfSsuIo5JTy2EbT1u8L8q55BgLzm9wbfM28I9avxYJE3eC7pPusqY4StcvMnliZvjY06zWlUu+ThiYPtbUh7btHqWVNpricu6ZwHJHGwevZv61Nt08e7gx0WJ9Wa8vxmIbi49A99k5VQXERTsm+WZ8ldiT981T/mSNHZcBQupq1290h6ZSe9yvux1vEx3WQPevBx7/h/m/smJeEZz+5nnCqk77/jHvX0YbVjcXdUlvarv+On+WPxH3I/x0/yx+L+y938HmZVayvbuknH3ZnDuep4sbxSLdPUekTJ+u6mbjvLH+b+ykbjjONrh2H2rLjnyj1Sa7nqDWLiUeT3sf52ID9Gytuh1tPFhNStPKY3kdjXA/qWQ3FYXZF3aD/8AiDSU0vkxn7tgfy5pcqa3zE2rZruPeG6ycPlsHPdCTxStIH4m3aOshNNJWRytD4pGvadzmODh2hcPqNG4z4rnN/MPXn61QGE1VO7hIXkH60Tix1ufcerNIlhIPpY6OJl3R+hkLjODazauAhlSwTNG+44OUdYFj0EZ8q6To7pdSVotFJaS1zE/wZBy5eUOdpIUtlE4crYohbGXBuoQhJGAhCEACEIQAIQvEsga0ucQGtBJJ3AAXJKAK2K4nFTROlldstHaTxNaOMnkXI9I9LKmvcY2AshO6NpzcOWR3H0buneoNJcakxGpyuI2kiJp3NbxvcPrHeeoKeNkdPHyDjPG4/64l06cOq1nLn/wgtuc9lwVaPBGtzf4R5PJHvU8+JRRjZGduJtrD2LIrsSfJkPBbyDj6SqSq058k+ZpT4zIfFAaO09p9yoSzud4ziekkrwhaSSPAQhC9AEIQgAQhCABCEIAEIQgCxDWyN3PPQcx2FaFPjh8tt+duXqKx0LxpHuYzHgahtiA7mOTh7R1LDxDR97DtwkmxuBez2kbi0jfbtVZpINxkeULXw/F9zZOp3v96zk1wepm5obrLewiGtJczcJvKZzSDjH2t4477x1mN4cA5pBBAIINwQcwQRxLhePYOJAZGDwxmbeWPfzrV1VaWmKRtFM68chtET/DkPkfdcd3I7pyivw6a1Q/RXTc89MjsKEIXPKwQhCABKWs6uMdAWg2Mr2x9Wb3doYR1ptSJre+awee/benYdZ2IXc8oMStHKXwHPtvNuof3PqWdjNQXSlvEwlo6RvPb3Jp0IYH07hxteexwBB7b9iW9JKF0NTI0jJxL287XG/qNx1LqxlnNo5zj7UzMQhCaYBCEIAEIQgAQhCABCEIAEIQgAQhCABCEIAEIQgBg0emL2ln1LW6DxdXtS9pJSmKpOz4O1aQEZWJO8ekCU4aDYa5zZJSPBNmN57ZuPcO1L2n7h8L2R5DA09Obj+pJUve0hmn25ncdH6/4RSQTnfJEx55nOaC4dt1oJf1f/RlJ5oe1MC481lJo6UXmkCEIWTQJE1u/NYPPftvT2kTW781g89+29Pw3yoVf8bE3Q/EDBIHeSTsvHK029Y5V0fHNGoq2EC9iM43jMtJ5Rxg8Y9oXJsP8TrPsXQ9HMZdGGsJysLX3btx96sxEWnqjyS0yWWmXBz3G8EnpJNiZlr+K4Zsf913s3jkWcv0A58NQwxyNa4O3seAQe3ek7G9WcbrupZODP1JLuZ0B3jDr2kV4xPaezCeGfMdzmCFs4potWU9+EgcWjymfGN6bt3DpAWKCrIyUlmmTtNcn1CEL08BCEIAEIQgAQhCABCEIAEL1DG57g1jS5x3NaC4noAzTNhOgVbNYuYIW8shsbczBnfmNlmU4x6majFy4Qrpp0U0LmqiJJAY4N9zk6QcjAeL7Ry5Lp6wTQWkpfjJPjXtz2pLBjbcYZuHSbkcqraRafRxgsprSP3bf8NvR9bqy5+JSSxLn7al/kojQo72P/BNpFXQ4fAGtDdvZ2YoxzeUfsj1lcXxh5c/acbk3JJ3kk3JWvW1cksjpJHl73b3Hf8A2HMMlj4pvb0FOpr0LfkXZPU/sd41f/RlJ5od5TAl/V/9GUnmh3lMC5NnWzoQ6UCEIWDQJE1u/NYPPftvT2kTW781g89+29Pw3yoVf8bOeYd4nWfYmeDxR0DuSzhvidZ9iZ4fFHQO5dG0hgadFiBbYHMesJmgrnt47jkOfr3pNamkKCxIrrbNeLE2nxgR6woazDKOo+UiieeUtG1+LxgqAXoJHG6G88lGs1cUT/E4SP7j9of+oHLHqdVv8uq6nx39YcO5M8lVwYvcjiyXj/HSON3YEyOJtXcw6a32EqbVlVjxZYHdJe0/oPeqr9XdePJjPRJ7wE//APaUjyb9X/UvJ0q/4frsmrF2mHh6znp0AxD+U3/Mj96+t1f4h/KaOmRnsKfHaWu4oh+I+5RP0wf/ACm/iPuWvq7fCPPQrE6PVxXH+SOmQ+xpV2DVhUHx54m/dD394at2XTKbijjHTtH2hZVXrAeN89OzrYP1OK9+oufg89Kot0uq2MfKVL3fcY1n6tpbFNoLh8I2nR7VuOV7iOsXDfUk1+l8su6sB+49g/RZUaiVzzd7nOPK4lx9a8ztlzL9Hv8ATjxE6S7HMPpW7LHRtH1YWg/oFu1YWJawjmIIfSkP9LT/AFJLeoXL2NEeXueStl2LWLYzPUH42RzhxN3NHojLr3rKcpnKFyqiktkTyefJGVm4rvb0FaSzcV3t6Cmowd41f/RlJ5od5TAl/V/9GUnmh3lMC4tnWzqQ6UCEIWDQJE1vfNYPPftvT2kTW781g89+29Pw3yoVf8bOfYZ4nWfYmaHxR0DuS1hfidZ9iZYfFHQO5dC0hgTNTNJM1rS9zg1rQS5ziAAALkkncEstSxpRNNi+IswemdsxMs+qeMxZti6/KG3aAON5F911Da8iqpZlyu1iT1MxpsIpXVLxvlcDwY57XFhv8J5aL8RViLQfSGpzqMTbTg57MJcHN5jwQYMvvFaeKY3T4VH8Aw2NrSz5SQgO8O2ZJ8uTlJyGQtlYJNfic85JllfJf6ziR1N3DqCIYeU1m9gnfGLyW4yO1T4gd2PTE8h4bf8A5yrz6C6RQZw10M7R5Lz4Tub4xhH5krbA5Ar9Ji9RF8nPKy3EHuA/De3qW3hPDMLFeUTVmkmK0QPw/DHbI3yR32B0vbts9YUmH4PpBiYD2htDA7cX3Y8tvvAsZL2zBs0G+S6VhGMzU1B8JxCTaLrGNmy1ryCPBabWBcd/MN/Hbn+PaZVVU4+GYo+KOMlot9pwsXdeXMEqFMpPJfsbK6MVmSyanZ/4uOPDuMFrj63TjuXmTU7XNbenxgvI3B3Cxtvzlsj+4pa2RyL3C8sO0wlp5WktPaE76X7ivqvsM8WpUuaZMRxOR4A2nBuTW8p4SUnL0QvMegmjUYs6plk5+Ec7/wBqMBfcF08rICA5/DM+rIbu6pPGv036Ew1OE0WLRulpCIakZvYRsgn7bRy/Xby533BfoaX7+PKN+tqXs58MW5NXujkuTKySI+cDR18LH7lWq9UlbC3hMMxETM3hjyGgjkabujcekNCyaykfDI6ORpa9ps5p3j3jjuN694fiEsD9uGR0buVptf7w3EcxBTHhlzFi1iXxJFBmkUsE3wbEIHQSjjIIabkgEjky8YEg8y39oEAg3BzBG4hM9PidJjMPwLEY2iU5RSt8E7R3FhPiP3ZZtda32VzapoqjBqz4FVHagebwy5hpaTk4cmeTm+Sc8wbnyFkoS0zNyhGS1QN5yhcpnKFytRMyNZuK729BWks3Fd7egpiMHeNX/wBGUnmh3lMCX9X/ANGUnmh3lMC4tnWzqQ6UCEIWDQJE1u/NYPPftvT2kTW781g89+29Pw3yoVf8bEDC/E6z7EyQ7h0BLmFfJ9Z9iY4tw6AuhaQwPNfViGGSU7o2Pf07LSbepZ2qFhpcIrcUfnNO92y4532Tssv0yvfflsFFp1Ls4bUn7Ab+J7W+1XqdnBaK0TBueWk+nJJKfWoZrOaRVF5QbE9ziSSSSTmScySd5J5V8QhXkIJg0FwcVVaxrhdjPjH8hDSLN63FotyXS+uhavj8Hw+urPKALW/+GzaHa59upLtk1HYZUk5bmJrCxs1NY5oPxcJMbBxFwPhu6yLdDQlhCFqMVFZIxKTk82CEIWjwFYoK2SGRssTi17TcEesHlB4wq6EAdLxGCPGKL4RE0Nq4RZzRvdx7HODmWnluOVc0W1ofjvwOrZIXWjd4EovlsE+N6J8LqI41paycHEFZwjRZk4Mg5A8H4wDrId6aTD2S0du38DZe+Orv3/kU01ayh8N0aiqpM5YJG+Flc/GGB1z9q7XHnASqmvSk7GiLwfLe23/m79zVjFL2IZhX7xcwicyU8LzvLG35zax9ancqmjzbUkH3Gntz9qtuVFfCFz5ZGs3Fd7egrSWbiu9vQU5GDvGr/wCjKTzQ7ymBL+r/AOjKTzQ7ymBcWzrZ04dKBCELBoEia3fmsHnv23p7SJre+awee/ben4b5UKv+NiDhPyfWfYmOLcOgJdwn5P0j7ExRbh0BdC0hgY+nMO3htSPsB34Htd7FdopOG0Uo3j+G4A+hLJD7R2qziFLwsMsR/iMez8TSPasvVLIajR6upjm6F8ha3jsWtlYPxteoZPKxMqjvW0LSEIV5CC6rophIqMEERfwYkc8udYGzWTm+/LMMtfiuuVLoAN9Guh/fVf3Sblmll5Q2l5N5+GSibBaZwjjhdVyEhuTeG2nHIW2iGG5+oFomioKlwglw+Ske+4jfwbYg51ibNfHdpdYE7LuTjXLIZXMc17SQ5pDmkbwQbgjoKYq/Tirm4ISFgbFJHIdhuyXmNwcC43PJuFgsyql2f+zUbV3X+jJx3C30tRJA83LDkdwc0i7XdYPUbhUE963KcCphkHlxFv8Aluvf84SIm1y1RTF2R0yaBPWiWj9MylNfWDaYTaOOxO14WyPBHjOc7IN3WzPMiroOPjhNH6RzdzHR7XoiSI/mIWbW9l5Pakt34NnFcafSQ8IcKYyG4GckLXC+67GNd6iVna0KgSUdE/Z2S87YG/ZDowS2/WOxINbiU87Wskme8NyaHuLgCcr58fPvTrrcdZ1JENzGSHtLGj9KUq9M4+dxrs1Ql42OfEpj12SfB8Hw6i8t7muIHHwUdn/nlaqOi+H/AAisgitcF4LvuM8J/aAR1qLWvW/C9IIqcEllKxgcOLa+Veeu8bT0LzEvNqJ7hlknI+08OxGxg8lrW/hAHsXxymcoXKyIlkfGs3Ft7eg960uNZuLb29BTEZO8av8A6MpPNDvKYEv6v/oyk80O8pgXFs62dOHSgQhCwaBImt35rB579t6e0ia3fmsHnv23p+G+VCr/AI2IeEfJ+kfYmGLcOgJewf5P0j3BMMW4dAXQtIYE7Uvaopfg2OYjRG2zM0yD0XbbG2+5M7sTA1JmP1HwLHMOrjYMcRHITkAM45HE+bl/KoblsV1PcixOj4GeWE/w3vZ1NcQD1ix61WTfrQoODrjIBlMxr/Sb4Dh2Bp9JKCthLVFMinHTJoF0A5aND7T/AP7X/SufroOL56PUxbuD27X43tP5rLFv9v5N1f3fg58vjtxX1WcMojPNHCN8j2s6ATmeoXPUm55Cssx41p/JUBO/Yk/TDdc+TzrZqw6phhH8KMk8xkO7sY09aRkqjoQ27rYLoWgD21VDVYe82Ni5l+IO4wPsyAO9ILnq0tHcWdSVMc4vZps4DymHJw7MxzgLVkdUduTNctMt+DPma6NzgRZzCQQeJzTYjqIT9rdbd9LINzmSDsLD/Uqus3CGiRlbFYxVAFyN23s3Duhzc+lp5Vf1hwOkp8NYBeR42WjjJcyMW7bJWtSlCX5GaHGM4/grauYmU8NXiM2TIY3AHmaNuS3PkwDnuFzPRAvnlqa6Xx5pHdrnbb7c1y0DoTprlrxSYfS4PAbyTbLpLby0OuLj7ctz6BWXhlEIIY4h5DbE8p3uPWblLr/qWOQ6S0VqJK5QuUzlC5WomZHxrOxbe3oPetHjWdi29vQe9MRk7vq/+jKTzQ7ymBL+r/6MpPNDvKYFxbOtnTh0oEIQsGj4SkHW2+9ND579t6eJpEga0nXp4vO/0PT8N8qFXfGxPwb5P0j3BMEW4dAWBg3yfpHuC349w6F0LeSGBM1LGsvDeGw97gPChIlHQMn/AJST6KZ2r0+IOa5rhdrgWkcoIsR2KSazRRB5MqV1V/iOAUlbvkhAbJy3HxUva5rH9CR1v6nKkU9XXYJObsl23R3sNrwLPHS6LYdzBhWXi2Hup55IH+NG4tvyje13QQQetaw0ttPgxiY76vJUT/oBVR1NLPhspttBzoz05m3O1wD7c55EgJr0D0cfUSioc4xwwnaLwdkuc3PZa7iA4zxDLjydblp3FVZ6tjAxfC5aaV0UrbOG7kcOJzTxg/2OabtV1C0PnrZMmQMIBO4Et2nu6mfrVfFtcOFy1ElPPTOlp2mzJgGv2juc4NNi1vI4EkjiCdYoKAYYbF1NSzgOu4uY87ZH8y58IAZcimeI1x09yhYfTLV2OR4tXuqJ5J3b5HF1uQbmt6gAOpVE0aX6KClbHPDJwtPJYNdkSCRdty3JwIBsRbuurquDTWxLJNPcEIQtGTougdTHWUkuHVBvbwmZ57FwbA8rXepwHEmbEjG2ofWz+DBQxPDSQfHc0Ole0cYDAxotvJcN4SHoBgJkcax8xhip3X2xYElou4XdkG7JzuDcOsmfTClp8bpPgsGINiG2HPAbcv2Nwcxxa7ZvYgjK4G+ygu2k9P8Awup3itX/AHL+Dj+G1MmJYjPiUoOztERNOYblZrR91lukuumNzhe181Yi1JGNoEuL7MY3tEeyLHfbalsOwqtphqlo6PDpK6nrJduJrXtc50ZY+7gAGljQQTcWNznblXldygssjc6tT5PDlC5U9Hq101LHI/xiCCeUtcW367K45dCDzWZHJZPI8cazcW3t6CtIb1mYtvb0HvTUYO56v5P920g/4Y7ymUJQ0Ef/ALvpfNjvKaYXri2db/J04dKJkIQsGjPnekPWY74iLzv9Dk7zlIusg/ERed/ocn4b5UKu+Ni1gvyfpHuC349wWBgvyfpHuC349wXQt5IYErVK1RNUrVJIfEStYeHyxPhxOmympi0utfNrXXa4gbwCSCONrs8gnDEIo8boosQpLcM1uzLFcXuM3Rn7TSbgm1w7nCsFoIIIBBFiDmCDvBCQ5NG6/Dah1ThMngu8eEkHK99mz/Be3fbc4Xy5UjU4y1IdkpR0s1tHdD6ipmDXxyRRg/GPe0sIHG1ocM3H1bzyFlxWlOKCTDaGdtPQ01o6mVg2nSv3mCPMeCBcveTmXAZjaumYjpLpJXM4DgWUzXZPexpiJad93ve4gfczWfhNNiuAyGSmAqoJA3hWBriLj7IO00i5s4XHKOJFlrnye11KA04foto5QODzI6rkabi7uGFx9mMCM9DrqDHcXqMVqWsijdst+TjGdr5F8h3A85yAy5SYP++XDpc6rCvjM75Qy59Lw0+pQVuud5Y6LDMOEdhfbIDtkZ3dwUYsLDO5cRzLULIw3S3MzrlPZvYetJ8LNLgXAOdtuYY7ni2nTBxA5hcgcy5YnaixCWo0Wjnme6SR8j3Pc43JPwx46gBYADIAABJKpwzzi2/JNiFlJJeAQhCoEHUNF6KOTAzHLMIWSvcNslrbHhbAXdlmW2tx3WY7QCmb4UmJR7P3WNy6TIQsjWZJwOi9JGP40kXY4ST37QO1JzdX9PleWX8g/pUClZqlo8l2iGmOrwPsuI6O4b8YZxVyjNrWFs+Y5AwCMekUkaS6T12PSBuzwFEx1w0XIJGV3O8t+/IWA9ZsUmiNJFY8Htkcch2vy5N9S1yLCwyAW1TKTzmzx2RisoIq09O2NjY2CzWgADmC+OUzlC5WxJmR8azsW3t6CtHjWbi29vQe9MRk7DoO7/YKbzY7ymiB6UtCT/sNN5sd5TRAVxbOt/k6cOlGkw5IXiM5IWDRnTpG1kfIRed/ocn2dqUdPKIyUjiBnGRJ1C4d+VxPUnUPKxC7lnBiZgnyfpHuC3YjkEuYDMPCjO8+EOfLMdgB6it6nfbJdG1bkEC21StUTVK1SSHxJGqVqiapWqeQ6JIF5cvQXlyUMK00LXeM0HpAPeqmIxjgJWgWBjeLDLe0q85QyNuCOXLtW0ZZjaMm+iEf2Xn/AOYfelNNWgIL9GKqI+NBNK1w5Cx8cx70qq3C9BJiusF8ccl9VvCKXhaiGK19uRjT0FwB9V1S3kT5Zmtr5GzS4VRjjJ6uDZFGP1nsUr1V1wScPj1FTjMQxtkPMS973A+ixnarLlDR3Zfd2RE9QuUz1C5VInZE5QuUzlE5NRhkYWZivjN6PatQhY1U4ySWaLkkNaBxkmwA6SUxGTsOhQ/2Gm82O8pngWVgtFwMEUW/g2MZflLQAT2rZgauJN5ybOpFZJItxjJfV6jGSFk9K88az6iK9wRcFbL23VSaJAHGNJ8EdSTbTb8G43jd9U79gnlHFyjrVjDcQbLkcn8nE7nb7l0vEKBkrHMe0Oa7eD/rfzrmmkOiMsBL4ryR78vHZ0gbxzj1LpU3qxaZ8kVtLi848GrFLZW43A7kn0OOubYSDbHKPG9x/wBZreo6xkniOBPJucOo5osraMwmjXapWqlHMelWGTDoUc4soi0WQvLl9a4HjXxyR3GkLlE5SuUTkxGWY2gVdHTYnW4ZNYRV15or7i97SJWel4QHm7caxdIsDlo5nRyA7NzsPt4L28RB3XtvHF2FaGl+jwq42lr+DmiO1FILix32JGYFwMxmCAeYxUOs3FaRnA1uH/CtnISNu3aA43Oax7SeoHlTK7HW/sYsrVi+5iU8LpHbMbXPd9VgLj2DNP8AovgLcPY/Ea9wibE0lrXEEi4ttG3lEHZa0XJLuWwWIdbOISN2aTBxEeWRznM/RGPWsOrwyuxCRsuKVG21pu2CM2Y3qbYDfa4uSPKTJXSmsksjEaYwebeZHgcj6ysqsUlbsmdxbEDvEbbNHY1rG3+yeVbzlIGBoDWgAAAADIADcAORRuW4RyWRmbzeZE9QuUzlE5PQtkTgo3ZKGpxFjdx2jyD3rMfNJM4MaCS42DGgknqGZTUhbPddW38Fu7jPuTdq60ZJc2rlbYDOFp4yf4hHJydvJefRXQOxEtUATvEWRA84dx+6MuW+5dFhhUmIxKy0w/ZTTTvqkeoI1oQMXiGJW2tsoCs+oQhAAvLm3XpCAKksCpSwLYKifDdACPjeicE93bOw8+UywuftDce/nSViWh1TEbsAlaONmTvwnPsJXY5adVZKZPrxM4bdhU6YSOLRYvURHZcSbeTIDf12d61p0+lDfLjI52kH1G3euj1uGMkFpGNeORwDu9L1boRTO8Vroz9h2XY647E/6iqXVHL8CfRnHpZlwY9Tu/iW+8C312t61diq2O8SRp+64HuKzKnQFw8SYHmc0j1g+xZc+hdWNzWO+67/AJgEaKZcS/YZ2LmI1F5UbpCk84DWs3RSD7pB/SVG6nrm+TUjql9i9WHj2kjz1Zd0ODnlROeUpH4byVH4ZfcvOxWnyan8MvuW1QvKM+r9hrc4qF7rbzZLgw2td/DnP3g8fqUkeitY4/Ikc7nMH9V176cFzJHmqT4RpzV0Q3yN7Qe5UpsZiG67ugW77KxT6B1LvGdG0dLnHsAt61rUmrxn8SZ7vuNDO/aR6lMe57osfYUp8acfFaB05+5QwU9TUmzGvk+6PBHSfFHWuo0Gh9JHmIQ48r7v9Tsh1Bb8NJYAAWA4glyxcV0L9m1h2+pnNcJ1eyOsZ5AwfVZ4Tutx8EdV094NgMNOLRRht97t7ndLjmejctmOmVuKnUtl058sfCqMeCrFArsUKmZEApEoYfGtsvqEIAEIQgAQhCABCEIAF4dECvaEAVn0ygfSrQQgDIdSqJ1ItstC8mIIAwjSLwaRbxhC8mAIAwvgiPgi3OACOACAMUUi9ikWwIAvQhCAMltIpWUq0xGF6DQgCiylU7KZWEIA8NjAXtCEACEIQAIQhAAhCEAf/9k=;" vertex="1" parent="sBFlt-I1jG-c467NaXLH-132">
          <mxGeometry x="50.559999999999945" y="42" width="89.88" height="100" as="geometry" />
        </mxCell>
        <mxCell id="sBFlt-I1jG-c467NaXLH-142" style="edgeStyle=orthogonalEdgeStyle;rounded=0;orthogonalLoop=1;jettySize=auto;html=1;" edge="1" parent="1" source="sBFlt-I1jG-c467NaXLH-139" target="sBFlt-I1jG-c467NaXLH-140">
          <mxGeometry relative="1" as="geometry" />
        </mxCell>
        <mxCell id="sBFlt-I1jG-c467NaXLH-139" value="" style="fontColor=#0066CC;verticalAlign=top;verticalLabelPosition=bottom;labelPosition=center;align=center;html=1;outlineConnect=0;fillColor=#CCCCCC;strokeColor=#6881B3;gradientColor=none;gradientDirection=north;strokeWidth=2;shape=mxgraph.networks.nas_filer;" vertex="1" parent="1">
          <mxGeometry x="1590" y="188" width="100" height="42" as="geometry" />
        </mxCell>
        <mxCell id="sBFlt-I1jG-c467NaXLH-140" value="" style="pointerEvents=1;shadow=0;dashed=0;html=1;strokeColor=none;fillColor=#4495D1;labelPosition=center;verticalLabelPosition=bottom;verticalAlign=top;align=center;outlineConnect=0;shape=mxgraph.veeam.raid_controller;" vertex="1" parent="1">
          <mxGeometry x="1590" y="306.5" width="101" height="62.2" as="geometry" />
        </mxCell>
        <UserObject label="Load Balance" placeholders="1" name="Variable" id="sBFlt-I1jG-c467NaXLH-144">
          <mxCell style="text;html=1;strokeColor=none;fillColor=none;align=center;verticalAlign=middle;whiteSpace=wrap;overflow=hidden;" vertex="1" parent="1">
            <mxGeometry x="213" y="306.5" width="80" height="20" as="geometry" />
          </mxCell>
        </UserObject>
        <mxCell id="sBFlt-I1jG-c467NaXLH-145" value="FireWall" style="text;html=1;align=center;verticalAlign=middle;whiteSpace=wrap;rounded=0;" vertex="1" parent="1">
          <mxGeometry x="377.53" y="277" width="60" height="30" as="geometry" />
        </mxCell>
        <UserObject label="Api Gateway" placeholders="1" name="Variable" id="sBFlt-I1jG-c467NaXLH-146">
          <mxCell style="text;html=1;strokeColor=none;fillColor=none;align=center;verticalAlign=middle;whiteSpace=wrap;overflow=hidden;" vertex="1" parent="1">
            <mxGeometry x="770" y="316.5" width="80" height="20" as="geometry" />
          </mxCell>
        </UserObject>
        <UserObject label="Postgre SQL&amp;nbsp;" placeholders="1" name="Variable" id="sBFlt-I1jG-c467NaXLH-147">
          <mxCell style="text;html=1;strokeColor=none;fillColor=none;align=center;verticalAlign=middle;whiteSpace=wrap;overflow=hidden;" vertex="1" parent="1">
            <mxGeometry x="1275.5" y="236" width="80" height="20" as="geometry" />
          </mxCell>
        </UserObject>
        <UserObject label="NAS" placeholders="1" name="Variable" id="sBFlt-I1jG-c467NaXLH-148">
          <mxCell style="text;html=1;strokeColor=none;fillColor=none;align=center;verticalAlign=middle;whiteSpace=wrap;overflow=hidden;" vertex="1" parent="1">
            <mxGeometry x="1600" y="160" width="80" height="20" as="geometry" />
          </mxCell>
        </UserObject>
        <UserObject label="RAID" placeholders="1" name="Variable" id="sBFlt-I1jG-c467NaXLH-149">
          <mxCell style="text;html=1;strokeColor=none;fillColor=none;align=center;verticalAlign=middle;whiteSpace=wrap;overflow=hidden;" vertex="1" parent="1">
            <mxGeometry x="1600.5" y="380" width="80" height="20" as="geometry" />
          </mxCell>
        </UserObject>
      </root>
    </mxGraphModel>
  </diagram>
</mxfile>
